<?xml version="1.0" encoding="UTF-8" standalone="no"?>
<svg version="1.1" xmlns="http://www.w3.org/2000/svg" width="541.86664mm" height="225.77777mm" viewBox="0 0 1919.9999 799.99997">
  <rect y="0" x="0" height="800" width="1920" style="fill:#59554e"/>
  <path d="m 854.28573,192.8571 a 304.28571,64.285706 0 0 0 -304.20026,-64.2857 304.28571,64.285706 0 0 0 -304.37112,64.24959 304.28571,64.285706 0 0 0 304.02926,64.3218 304.28571,64.285706 0 0 0 304.54192,-64.21346" style="fill:#68645b"/>
  <path d="M 831.42863,214.28569 A 284.28574,51.428566 0 0 0 547.22272,162.85713 284.28574,51.428566 0 0 0 262.85718,214.2568 284.28574,51.428566 0 0 0 546.90333,265.71424 284.28574,51.428566 0 0 0 831.42843,214.34347" style="fill:#373530"/>
  <path d="m 1556.7857,77.678561 a 164.82143,34.821425 0 0 0 -164.7751,-34.82142 164.82143,34.821425 0 0 0 -164.8677,34.80186 164.82143,34.821425 0 0 0 164.6825,34.840969 164.82143,34.821425 0 0 0 164.9602,-34.782289" style="fill:#68645b"/>
  <path d="m 1544.4048,89.285711 a 153.98811,27.857141 0 0 0 -153.9449,-27.85714 153.98811,27.857141 0 0 0 -154.0313,27.84149 153.98811,27.857141 0 0 0 153.8583,27.872779 153.98811,27.857141 0 0 0 154.1178,-27.825829" style="fill:#373530"/>
  <path d="M 1004.2857,65.714271 A 202.85714,42.857138 0 0 0 801.48553,22.857141 202.85714,42.857138 0 0 0 598.57147,65.690201 202.85714,42.857138 0 0 0 801.25763,108.5714 202.85714,42.857138 0 0 0 1004.2856,65.762431" style="fill:#68645b"/>
  <path d="M 989.04763,80.000001 A 189.52383,34.285711 0 0 0 799.57703,45.714291 189.52383,34.285711 0 0 0 610.00002,79.980741 189.52383,34.285711 0 0 0 799.36413,114.2857 189.52383,34.285711 0 0 0 989.04753,80.038521" style="fill:#373530"/>
  <path d="m 1258.3928,147.76784 a 158.48214,33.482139 0 0 0 -158.4376,-33.48213 158.48214,33.482139 0 0 0 -158.52657,33.46333 158.48214,33.482139 0 0 0 158.34857,33.50093 158.48214,33.482139 0 0 0 158.6155,-33.44451" style="fill:#68645b"/>
  <path d="m 1246.4881,158.92857 a 148.06549,26.785712 0 0 0 -148.0239,-26.78571 148.06549,26.785712 0 0 0 -148.10707,26.77066 148.06549,26.785712 0 0 0 147.94067,26.80075 148.06549,26.785712 0 0 0 148.1902,-26.75561" style="fill:#373530"/>
  <path d="m 2212.6784,252.05356 a 462.76784,97.767842 0 0 0 -462.6378,-97.76784 462.76784,97.767842 0 0 0 -462.8977,97.71292 462.76784,97.767842 0 0 0 462.3778,97.82274 462.76784,97.767842 0 0 0 463.1574,-97.65797" style="fill:#68645b"/>
  <path d="m 2177.9166,284.64287 a 432.35122,78.214276 0 0 0 -432.2298,-78.21427 432.35122,78.214276 0 0 0 -432.4725,78.17033 432.35122,78.214276 0 0 0 431.9868,78.25819 432.35122,78.214276 0 0 0 432.7152,-78.12637" style="fill:#373530"/>
  <path d="m 2055.7141,57.142851 a 202.85714,42.857138 0 0 0 -202.8002,-42.85713 202.85714,42.857138 0 0 0 -202.914,42.83306 202.85714,42.857138 0 0 0 202.6861,42.8812 202.85714,42.857138 0 0 0 203.0279,-42.80897" style="fill:#68645b"/>
  <path d="m 2040.476,71.428581 a 189.52383,34.285711 0 0 0 -189.4706,-34.28571 189.52383,34.285711 0 0 0 -189.577,34.26645 189.52383,34.285711 0 0 0 189.3641,34.304959 189.52383,34.285711 0 0 0 189.6834,-34.247179" style="fill:#373530"/>
  <path d="M 1270,435.08928 A 467.14286,137.94641 0 0 0 802.98833,297.14288 467.14286,137.94641 0 0 0 335.71437,435.01179 467.14286,137.94641 0 0 0 802.46353,573.03565 467.14286,137.94641 0 0 0 1269.9997,435.24427" style="fill:#68645b"/>
  <path d="M 1234.9095,481.07146 A 436.43868,110.35713 0 0 0 798.59343,370.71434 436.43868,110.35713 0 0 0 362.03223,481.00947 436.43868,110.35713 0 0 0 798.10313,591.42856 436.43868,110.35713 0 0 0 1234.9092,481.19545" style="fill:#373530"/>
  <path d="M 401.42856,60.535731 A 121.42856,34.821425 0 0 0 280.0341,25.714311 121.42856,34.821425 0 0 0 158.57146,60.516171 121.42856,34.821425 0 0 0 279.89768,95.357141 121.42856,34.821425 0 0 0 401.42848,60.574851" style="fill:#68645b"/>
  <path d="M 392.30718,72.142881 A 113.44735,27.857141 0 0 0 278.89169,44.285741 113.44735,27.857141 0 0 0 165.41249,72.127231 113.44735,27.857141 0 0 0 278.76424,100.00001 113.44735,27.857141 0 0 0 392.30711,72.174181" style="fill:#373530"/>
  <path d="M 278.57143,358.03568 A 304.28571,115.17855 0 0 0 -25.628809,242.85713 304.28571,115.17855 0 0 0 -329.99992,357.97098 304.28571,115.17855 0 0 0 -25.970669,473.2142 304.28571,115.17855 0 0 0 278.57124,358.16509" style="fill:#68645b"/>
  <path d="M 255.71433,396.42857 A 284.28574,92.142844 0 0 0 -28.491559,304.28573 284.28574,92.142844 0 0 0 -312.85712,396.3768 284.28574,92.142844 0 0 0 -28.810949,488.57138 284.28574,92.142844 0 0 0 255.71415,396.53209" style="fill:#373530"/>
</svg>
