<?xml version="1.0" encoding="UTF-8" standalone="no"?>
<svg version="1.1" xmlns:svg="http://www.w3.org/2000/svg" xmlns="http://www.w3.org/2000/svg" width="124.17778mm" height="80.223061mm" viewBox="0 0 440.00001 284.25494">
  <path style="fill:#ff7000" d="M 151.42773,125.68516 85,139.54063 l -65,134 -15,0 -5,10 45,0 -5,-10 -10.35742,0 L 47,235.54063 152.42386,217.0254 225,243.54063 l 0,30 -15,0 -5,10 50,0 -5,-10 -15,0 0,-30 70,-25 83,15 22.35742,40 -10.35742,0 -5,10 45,0 -5,-10 -15.35742,0 -70.71485,-127.14258 -50.35546,-20.35742 -47.85743,6.78711 -47.14257,-0.71485 z M 117,151.54063 l -2,45 -26,-43 z m 204,0 23,3 -24,35 z m -237,12 33.04061,50.55671 L 53,226.54063 Z m 266,0 34,64 -64,-14 z" />
  <path style="fill:#924c15" d="m 0.35714,283.54065 7.5,0.71429 2.85715,-10.35715 -6.07143,0.35715 z" />
  <path style="fill:#924c15" d="m 83.92857,163.18351 4.28572,0.35714 32.14285,50.35714 -67.5,12.85715 64.28572,-13.21429 z" />
  <path style="fill:#924c15" d="m 89.28571,153.18351 28.57143,-3.21429 3.21429,0 -2.85714,45.71429 -3.21429,0.35714 2.5,-44.64286 z" />
  <path style="fill:#924c15" d="m 150.71429,216.75494 7.85714,0 69.28571,26.78571 -1.07143,30 -2.85714,0 0.35714,-30 z" />
  <path style="fill:#924c15" d="m 205,283.18351 4.64286,0 3.57143,-9.64286 -3.57143,0 z" />
  <path style="fill:#924c15" d="m 20,272.82636 2.5,-0.71428 64.64286,-131.42857 67.14285,-14.28572 -3.21428,-1.07143 -66.78572,14.64286 z" />
  <path style="fill:#924c15" d="m 305.35714,217.46922 84.64286,15 22.85714,40.71429 -2.5,0.35714 -22.5,-40 -80.71428,-14.64286 z" />
  <path style="fill:#924c15" d="m 384.64286,227.82636 1.78571,-1.42857 -33.92857,-62.85714 -2.85714,-0.71429 z" />
  <path style="fill:#924c15" d="m 321.07143,151.04065 24.28571,2.14286 0.35715,2.85714 -22.5,34.64286 -2.85715,-0.71429 22.85715,-35.35714 z" />
  <path style="fill:#924c15" d="m 250.71429,133.18351 c 2.85714,-0.35715 48.21428,-5.35715 48.21428,-5.35715 l -0.71428,-2.5 z" />
  <path style="fill:#924c15" d="m 399.28571,273.89779 3.92858,-0.35714 -2.85715,10.35714 -5.71428,0.35715 z" />
  <path d="m 157.49737,197.72553 48.57668,9.07582 0,-41.43757 -48.1195,-8.65528 z" style="fill:#928e85" />
  <path style="fill:#cdcbc7" d="m 153.81081,196.05363 48.57668,8.42875 0,-38.48323 -48.1195,-8.03819 z" />
  <circle style="fill:#45acb7" cx="178.1492" cy="181.33568" r="15.605618" />
  <path style="fill:#59ac38" d="m 164.82143,179.97007 c -0.36735,-1.32984 0.49721,-2.61782 1.45098,-3.46419 1.43033,-0.3155 2.8065,0.34635 4.18035,0.63414 1.07383,1.09703 2.50681,-0.20246 2.54118,-1.38952 0.71318,-1.00065 1.26096,-2.10427 1.82452,-3.19252 1.09548,-0.84403 2.48644,0.11263 3.24413,0.97311 0.72668,0.78255 1.6815,1.8227 2.86934,1.43493 1.50236,-0.16271 1.83106,1.82274 2.99496,2.39679 0.9653,0.72637 2.74499,1.51554 2.38723,2.95559 -0.0497,1.04058 1.69878,1.06926 1.02853,-0.0456 -0.3781,-0.43633 -0.25811,-1.53109 0.28478,-0.59626 0.83102,1.26819 0.84732,2.80471 0.76555,4.25939 -0.0461,1.17449 0.2031,2.38223 -0.37051,3.42829 -0.15717,1.03948 0.43801,2.36656 -0.56086,3.1346 -1.28726,1.09299 -3.52492,0.42867 -4.02277,-1.18528 -0.65037,-1.24297 -1.65331,-2.29388 -2.12221,-3.62843 -0.87615,-1.44053 -2.41529,-0.27131 -3.3249,0.44698 -1.35168,0.65317 -0.98602,2.12113 -1.22645,3.26255 -0.73638,1.09594 -1.91172,-0.29015 -2.75894,-0.58494 -0.8903,-0.81937 -2.14763,-1.29364 -2.36856,-2.61771 -0.81153,-0.6912 -2.05028,0.1409 -3.04811,-0.0207 -1.97593,0.0242 -3.53795,-2.06483 -3.23096,-3.96127 0.0455,-0.76282 0.0941,-1.68515 -0.53728,-2.23993 z" />
  <path style="fill:#cdcbc7" d="m 192.77348,147.48226 -26.76904,-16.16244 -26.26397,-8.08122 0,-30.80964 15.15229,-60.60916 29.7995,-18.68782 22.72843,0 L 210.45115,0 l 39.39595,1.01015 2.0203,12.62691 13.63706,1.01015 24.74874,19.1929 16.66752,55.55839 -3.03046,40.4061 -28.78935,9.59645 -20.20305,10.10152 z" />
  <path style="fill:#e4e3e1" d="m 210.11173,1.20301 37.88072,2.02031 1.51523,13.63706 15.65736,0.50507 23.73859,18.18275 16.16244,55.05331 -2.52538,40.4061 4.54568,-40.91117 L 291.42901,31.00251 266.1752,14.335 l -13.63706,0 -4.04061,-14.14214 z" />
  <path style="fill:#a59f97" d="m 148.92857,125.68351 -0.35714,-32.5 L 159.64286,34.61208 185,14.25493 l 24.64286,-0.35714 6.78571,-13.57143 -6.78571,0 -2.5,11.78572 -21.78572,1.07143 -30.71428,18.21428 -15.71429,62.14286 0.71429,30.35714 z" />
  <path style="fill:#a59f97" d="m 167.14286,82.46922 5,-30 100.35714,1.07143 8.21429,28.21429 z" />
  <path style="fill:#787168" d="m 163.92857,84.96921 5,-30 100.35714,1.07143 8.21429,28.21429 z" />
</svg>
