<?xml version="1.0" encoding="UTF-8" standalone="no"?>
<!-- Created with Inkscape (http://www.inkscape.org/) -->

<svg
   xmlns:dc="http://purl.org/dc/elements/1.1/"
   xmlns:cc="http://creativecommons.org/ns#"
   xmlns:rdf="http://www.w3.org/1999/02/22-rdf-syntax-ns#"
   xmlns:svg="http://www.w3.org/2000/svg"
   xmlns="http://www.w3.org/2000/svg"
   xmlns:sodipodi="http://sodipodi.sourceforge.net/DTD/sodipodi-0.dtd"
   xmlns:inkscape="http://www.inkscape.org/namespaces/inkscape"
   width="541.86664mm"
   height="304.79999mm"
   viewBox="0 0 1919.9999 1079.9999"
   id="svg5148"
   version="1.1"
   inkscape:version="0.91 r13725"
   sodipodi:docname="stars.svg">
  <defs
     id="defs5150" />
  <sodipodi:namedview
     id="base"
     pagecolor="#ffffff"
     bordercolor="#666666"
     borderopacity="1.0"
     inkscape:pageopacity="0.0"
     inkscape:pageshadow="2"
     inkscape:zoom="0.35"
     inkscape:cx="1022.1614"
     inkscape:cy="494.28569"
     inkscape:document-units="px"
     inkscape:current-layer="layer1"
     showgrid="false"
     fit-margin-top="0"
     fit-margin-left="0"
     fit-margin-right="0"
     fit-margin-bottom="0"
     inkscape:window-width="1366"
     inkscape:window-height="746"
     inkscape:window-x="-8"
     inkscape:window-y="-8"
     inkscape:window-maximized="1" />
  <metadata
     id="metadata5153">
    <rdf:RDF>
      <cc:Work
         rdf:about="">
        <dc:format>image/svg+xml</dc:format>
        <dc:type
           rdf:resource="http://purl.org/dc/dcmitype/StillImage" />
        <dc:title></dc:title>
      </cc:Work>
    </rdf:RDF>
  </metadata>
  <g
     inkscape:label="Layer 1"
     inkscape:groupmode="layer"
     id="layer1"
     transform="translate(608.57141,53.352081)">
    <rect
       style="opacity:1;fill:#0d0c0b;fill-opacity:1;stroke:none;stroke-opacity:1"
       id="rect5156"
       width="1920"
       height="1080"
       x="-608.57141"
       y="-53.352081" />
    <path
       style="opacity:1;fill:#0d0c0b;fill-opacity:1;stroke:none;stroke-opacity:1"
       id="path5698"
       sodipodi:type="arc"
       sodipodi:cx="-557.14288"
       sodipodi:cy="10.933633"
       sodipodi:rx="8.5714283"
       sodipodi:ry="4.2857141"
       sodipodi:start="0"
       sodipodi:end="6.2820683"
       sodipodi:open="true"
       d="m -548.57146,10.933633 a 8.5714283,4.2857141 0 0 1 -8.56903,4.285714 8.5714283,4.2857141 0 0 1 -8.57382,-4.283321 8.5714283,4.2857141 0 0 1 8.56425,-4.2881058 8.5714283,4.2857141 0 0 1 8.5786,4.2809258" />
    <path
       style="opacity:1;fill:#c9c4bf;fill-opacity:1;stroke:none;stroke-opacity:1"
       id="path5718"
       sodipodi:type="arc"
       sodipodi:cx="-537.14288"
       sodipodi:cy="123.79078"
       sodipodi:rx="11.428572"
       sodipodi:ry="11.428572"
       sodipodi:start="0"
       sodipodi:end="6.2820683"
       sodipodi:open="true"
       d="m -525.71431,123.79078 a 11.428572,11.428572 0 0 1 -11.42538,11.42857 11.428572,11.428572 0 0 1 -11.43176,-11.42219 11.428572,11.428572 0 0 1 11.41899,-11.43495 11.428572,11.428572 0 0 1 11.43814,11.4158" />
    <path
       style="opacity:1;fill:#c9c4bf;fill-opacity:1;stroke:none;stroke-opacity:1"
       id="path5718-1"
       sodipodi:type="arc"
       sodipodi:cx="62.857143"
       sodipodi:cy="143.79077"
       sodipodi:rx="11.428572"
       sodipodi:ry="11.428572"
       sodipodi:start="0"
       sodipodi:end="6.2820683"
       sodipodi:open="true"
       d="M 74.285715,143.79077 A 11.428572,11.428572 0 0 1 62.860335,155.21934 11.428572,11.428572 0 0 1 51.428573,143.79715 11.428572,11.428572 0 0 1 62.847569,132.3622 11.428572,11.428572 0 0 1 74.285708,143.77801" />
    <path
       style="opacity:1;fill:#c9c4bf;fill-opacity:1;stroke:none;stroke-opacity:1"
       id="path5718-0"
       sodipodi:type="arc"
       sodipodi:cx="5.7142859"
       sodipodi:cy="529.50507"
       sodipodi:rx="11.428572"
       sodipodi:ry="11.428572"
       sodipodi:start="0"
       sodipodi:end="6.2820683"
       sodipodi:open="true"
       d="M 17.142858,529.50507 A 11.428572,11.428572 0 0 1 5.7174773,540.93364 11.428572,11.428572 0 0 1 -5.7142841,529.51145 11.428572,11.428572 0 0 1 5.7047115,518.0765 11.428572,11.428572 0 0 1 17.14285,529.4923" />
    <path
       style="opacity:1;fill:#c9c4bf;fill-opacity:1;stroke:none;stroke-opacity:1"
       id="path5718-12"
       sodipodi:type="arc"
       sodipodi:cx="-500"
       sodipodi:cy="298.07648"
       sodipodi:rx="11.428572"
       sodipodi:ry="11.428572"
       sodipodi:start="0"
       sodipodi:end="6.2820683"
       sodipodi:open="true"
       d="m -488.57143,298.07648 a 11.428572,11.428572 0 0 1 -11.42538,11.42857 11.428572,11.428572 0 0 1 -11.43176,-11.42219 11.428572,11.428572 0 0 1 11.419,-11.43495 11.428572,11.428572 0 0 1 11.43813,11.4158" />
    <path
       style="opacity:1;fill:#c9c4bf;fill-opacity:1;stroke:none;stroke-opacity:1"
       id="path5718-5"
       sodipodi:type="arc"
       sodipodi:cx="548.57141"
       sodipodi:cy="232.3622"
       sodipodi:rx="11.428572"
       sodipodi:ry="11.428572"
       sodipodi:start="0"
       sodipodi:end="6.2820683"
       sodipodi:open="true"
       d="m 559.99998,232.3622 a 11.428572,11.428572 0 0 1 -11.42538,11.42857 11.428572,11.428572 0 0 1 -11.43176,-11.42219 11.428572,11.428572 0 0 1 11.419,-11.43495 11.428572,11.428572 0 0 1 11.43814,11.4158" />
    <path
       style="opacity:1;fill:#c9c4bf;fill-opacity:1;stroke:none;stroke-opacity:1"
       id="path5718-10"
       sodipodi:type="arc"
       sodipodi:cx="651.42859"
       sodipodi:cy="655.21936"
       sodipodi:rx="11.428572"
       sodipodi:ry="11.428572"
       sodipodi:start="0"
       sodipodi:end="6.2820683"
       sodipodi:open="true"
       d="m 662.85716,655.21936 a 11.428572,11.428572 0 0 1 -11.42538,11.42857 11.428572,11.428572 0 0 1 -11.43176,-11.42219 11.428572,11.428572 0 0 1 11.41899,-11.43495 11.428572,11.428572 0 0 1 11.43814,11.4158" />
    <path
       style="opacity:1;fill:#c9c4bf;fill-opacity:1;stroke:none;stroke-opacity:1"
       id="path5718-50"
       sodipodi:type="arc"
       sodipodi:cx="-97.14286"
       sodipodi:cy="363.79077"
       sodipodi:rx="11.428572"
       sodipodi:ry="11.428572"
       sodipodi:start="0"
       sodipodi:end="6.2820683"
       sodipodi:open="true"
       d="m -85.714289,363.79077 a 11.428572,11.428572 0 0 1 -11.42538,11.42857 11.428572,11.428572 0 0 1 -11.431761,-11.42219 11.428572,11.428572 0 0 1 11.418995,-11.43495 11.428572,11.428572 0 0 1 11.438139,11.41581" />
    <path
       style="opacity:1;fill:#c9c4bf;fill-opacity:1;stroke:none;stroke-opacity:1"
       id="path5718-8"
       sodipodi:type="arc"
       sodipodi:cx="-414.28571"
       sodipodi:cy="778.07648"
       sodipodi:rx="11.428572"
       sodipodi:ry="11.428572"
       sodipodi:start="0"
       sodipodi:end="6.2820683"
       sodipodi:open="true"
       d="m -402.85713,778.07648 a 11.428572,11.428572 0 0 1 -11.42538,11.42857 11.428572,11.428572 0 0 1 -11.43177,-11.42219 11.428572,11.428572 0 0 1 11.419,-11.43495 11.428572,11.428572 0 0 1 11.43814,11.4158" />
    <path
       style="opacity:1;fill:#c9c4bf;fill-opacity:1;stroke:none;stroke-opacity:1"
       id="path5718-9"
       sodipodi:type="arc"
       sodipodi:cx="865.71429"
       sodipodi:cy="380.93362"
       sodipodi:rx="11.428572"
       sodipodi:ry="11.428572"
       sodipodi:start="0"
       sodipodi:end="6.2820683"
       sodipodi:open="true"
       d="m 877.14287,380.93362 a 11.428572,11.428572 0 0 1 -11.42538,11.42858 11.428572,11.428572 0 0 1 -11.43177,-11.42219 11.428572,11.428572 0 0 1 11.419,-11.43495 11.428572,11.428572 0 0 1 11.43814,11.4158" />
    <path
       style="opacity:1;fill:#c9c4bf;fill-opacity:1;stroke:none;stroke-opacity:1"
       id="path5718-97"
       sodipodi:type="arc"
       sodipodi:cx="954.28571"
       sodipodi:cy="106.64792"
       sodipodi:rx="11.428572"
       sodipodi:ry="11.428572"
       sodipodi:start="0"
       sodipodi:end="6.2820683"
       sodipodi:open="true"
       d="M 965.71428,106.64792 A 11.428572,11.428572 0 0 1 954.2889,118.07649 11.428572,11.428572 0 0 1 942.85714,106.6543 11.428572,11.428572 0 0 1 954.27613,95.219351 11.428572,11.428572 0 0 1 965.71427,106.63515" />
    <path
       style="opacity:1;fill:#c9c4bf;fill-opacity:1;stroke:none;stroke-opacity:1"
       id="path5718-07"
       sodipodi:type="arc"
       sodipodi:cx="382.85715"
       sodipodi:cy="286.64792"
       sodipodi:rx="11.428572"
       sodipodi:ry="11.428572"
       sodipodi:start="0"
       sodipodi:end="6.2820683"
       sodipodi:open="true"
       d="m 394.28572,286.64792 a 11.428572,11.428572 0 0 1 -11.42538,11.42857 11.428572,11.428572 0 0 1 -11.43176,-11.42219 11.428572,11.428572 0 0 1 11.41899,-11.43495 11.428572,11.428572 0 0 1 11.43814,11.4158" />
    <path
       style="opacity:1;fill:#c9c4bf;fill-opacity:1;stroke:none;stroke-opacity:1"
       id="path5718-84"
       sodipodi:type="arc"
       sodipodi:cx="951.42859"
       sodipodi:cy="886.64795"
       sodipodi:rx="11.428572"
       sodipodi:ry="11.428572"
       sodipodi:start="0"
       sodipodi:end="6.2820683"
       sodipodi:open="true"
       d="m 962.85716,886.64795 a 11.428572,11.428572 0 0 1 -11.42538,11.42857 11.428572,11.428572 0 0 1 -11.43176,-11.42219 11.428572,11.428572 0 0 1 11.41899,-11.43495 11.428572,11.428572 0 0 1 11.43814,11.4158" />
    <path
       style="opacity:1;fill:#9a938c;fill-opacity:1;stroke:none;stroke-opacity:1"
       id="path5698-5"
       sodipodi:type="arc"
       sodipodi:cx="-594.75476"
       sodipodi:cy="-98.997658"
       sodipodi:rx="5.2452025"
       sodipodi:ry="2.9258239"
       sodipodi:start="0"
       sodipodi:end="6.2820683"
       sodipodi:open="true"
       d="m -589.50956,-98.997658 a 5.2452025,2.9258239 0 0 1 -5.24374,2.925824 5.2452025,2.9258239 0 0 1 -5.24666,-2.92419 5.2452025,2.9258239 0 0 1 5.24081,-2.927456 5.2452025,2.9258239 0 0 1 5.24959,2.922554" />
    <path
       style="opacity:1;fill:#9a938c;fill-opacity:1;stroke:none;stroke-opacity:1"
       id="path5718-2"
       sodipodi:type="arc"
       sodipodi:cx="-582.51599"
       sodipodi:cy="-21.950956"
       sodipodi:rx="6.9936037"
       sodipodi:ry="7.8021979"
       sodipodi:start="0"
       sodipodi:end="6.2820683"
       sodipodi:open="true"
       d="m -575.52239,-21.950956 a 6.9936037,7.8021979 0 0 1 -6.99165,7.802197 6.9936037,7.8021979 0 0 1 -6.99555,-7.79784 6.9936037,7.8021979 0 0 1 6.98774,-7.806553 6.9936037,7.8021979 0 0 1 6.99946,7.793481" />
    <path
       style="opacity:1;fill:#9a938c;fill-opacity:1;stroke:none;stroke-opacity:1"
       id="path5718-1-4"
       sodipodi:type="arc"
       sodipodi:cx="-215.35175"
       sodipodi:cy="-8.2971525"
       sodipodi:rx="6.9936037"
       sodipodi:ry="7.8021979"
       sodipodi:start="0"
       sodipodi:end="6.2820683"
       sodipodi:open="true"
       d="m -208.35814,-8.2971525 a 6.9936037,7.8021979 0 0 1 -6.99165,7.80219761 6.9936037,7.8021979 0 0 1 -6.99556,-7.79784011 6.9936037,7.8021979 0 0 1 6.98775,-7.806553 6.9936037,7.8021979 0 0 1 6.99945,7.7934804" />
    <path
       style="opacity:1;fill:#9a938c;fill-opacity:1;stroke:none;stroke-opacity:1"
       id="path5718-0-2"
       sodipodi:type="arc"
       sodipodi:cx="-250.31985"
       sodipodi:cy="255.0271"
       sodipodi:rx="6.9936037"
       sodipodi:ry="7.8021979"
       sodipodi:start="0"
       sodipodi:end="6.2820683"
       sodipodi:open="true"
       d="m -243.32625,255.0271 a 6.9936037,7.8021979 0 0 1 -6.99165,7.8022 6.9936037,7.8021979 0 0 1 -6.99556,-7.79784 6.9936037,7.8021979 0 0 1 6.98775,-7.80656 6.9936037,7.8021979 0 0 1 6.99945,7.79348" />
    <path
       style="opacity:1;fill:#9a938c;fill-opacity:1;stroke:none;stroke-opacity:1"
       id="path5718-12-5"
       sodipodi:type="arc"
       sodipodi:cx="-559.78674"
       sodipodi:cy="97.032532"
       sodipodi:rx="6.9936037"
       sodipodi:ry="7.8021979"
       sodipodi:start="0"
       sodipodi:end="6.2820683"
       sodipodi:open="true"
       d="m -552.79314,97.032532 a 6.9936037,7.8021979 0 0 1 -6.99165,7.802198 6.9936037,7.8021979 0 0 1 -6.99556,-7.797841 6.9936037,7.8021979 0 0 1 6.98775,-7.806552 6.9936037,7.8021979 0 0 1 6.99946,7.79348" />
    <path
       style="opacity:1;fill:#9a938c;fill-opacity:1;stroke:none;stroke-opacity:1"
       id="path5718-5-8"
       sodipodi:type="arc"
       sodipodi:cx="81.876358"
       sodipodi:cy="52.169891"
       sodipodi:rx="6.9936037"
       sodipodi:ry="7.8021979"
       sodipodi:start="0"
       sodipodi:end="6.2820683"
       sodipodi:open="true"
       d="m 88.869962,52.169891 a 6.9936037,7.8021979 0 0 1 -6.991651,7.802198 6.9936037,7.8021979 0 0 1 -6.995556,-7.79784 6.9936037,7.8021979 0 0 1 6.987744,-7.806553 6.9936037,7.8021979 0 0 1 6.999458,7.79348" />
    <path
       style="opacity:1;fill:#9a938c;fill-opacity:1;stroke:none;stroke-opacity:1"
       id="path5718-10-2"
       sodipodi:type="arc"
       sodipodi:cx="144.81876"
       sodipodi:cy="340.85123"
       sodipodi:rx="6.9936037"
       sodipodi:ry="7.8021979"
       sodipodi:start="0"
       sodipodi:end="6.2820683"
       sodipodi:open="true"
       d="m 151.81236,340.85123 a 6.9936037,7.8021979 0 0 1 -6.99165,7.80219 6.9936037,7.8021979 0 0 1 -6.99556,-7.79784 6.9936037,7.8021979 0 0 1 6.98775,-7.80655 6.9936037,7.8021979 0 0 1 6.99946,7.79348" />
    <path
       style="opacity:1;fill:#9a938c;fill-opacity:1;stroke:none;stroke-opacity:1"
       id="path5718-50-4"
       sodipodi:type="arc"
       sodipodi:cx="-313.26227"
       sodipodi:cy="141.89513"
       sodipodi:rx="6.9936037"
       sodipodi:ry="7.8021979"
       sodipodi:start="0"
       sodipodi:end="6.2820683"
       sodipodi:open="true"
       d="m -306.26866,141.89513 a 6.9936037,7.8021979 0 0 1 -6.99166,7.80219 6.9936037,7.8021979 0 0 1 -6.99555,-7.79784 6.9936037,7.8021979 0 0 1 6.98774,-7.80655 6.9936037,7.8021979 0 0 1 6.99946,7.79348" />
    <path
       style="opacity:1;fill:#9a938c;fill-opacity:1;stroke:none;stroke-opacity:1"
       id="path5718-8-3"
       sodipodi:type="arc"
       sodipodi:cx="-507.33475"
       sodipodi:cy="424.72479"
       sodipodi:rx="6.9936037"
       sodipodi:ry="7.8021979"
       sodipodi:start="0"
       sodipodi:end="6.2820683"
       sodipodi:open="true"
       d="m -500.34114,424.72479 a 6.9936037,7.8021979 0 0 1 -6.99165,7.8022 6.9936037,7.8021979 0 0 1 -6.99556,-7.79784 6.9936037,7.8021979 0 0 1 6.98774,-7.80655 6.9936037,7.8021979 0 0 1 6.99946,7.79348" />
    <path
       style="opacity:1;fill:#9a938c;fill-opacity:1;stroke:none;stroke-opacity:1"
       id="path5718-9-4"
       sodipodi:type="arc"
       sodipodi:cx="275.94876"
       sodipodi:cy="153.59845"
       sodipodi:rx="6.9936037"
       sodipodi:ry="7.8021979"
       sodipodi:start="0"
       sodipodi:end="6.2820683"
       sodipodi:open="true"
       d="m 282.94236,153.59845 a 6.9936037,7.8021979 0 0 1 -6.99165,7.8022 6.9936037,7.8021979 0 0 1 -6.99555,-7.79784 6.9936037,7.8021979 0 0 1 6.98774,-7.80656 6.9936037,7.8021979 0 0 1 6.99946,7.79348" />
    <path
       style="opacity:1;fill:#9a938c;fill-opacity:1;stroke:none;stroke-opacity:1"
       id="path5718-97-2"
       sodipodi:type="arc"
       sodipodi:cx="330.1492"
       sodipodi:cy="-33.654274"
       sodipodi:rx="6.9936037"
       sodipodi:ry="7.8021979"
       sodipodi:start="0"
       sodipodi:end="6.2820683"
       sodipodi:open="true"
       d="m 337.1428,-33.654274 a 6.9936037,7.8021979 0 0 1 -6.99165,7.802198 6.9936037,7.8021979 0 0 1 -6.99555,-7.79784 6.9936037,7.8021979 0 0 1 6.98774,-7.806553 6.9936037,7.8021979 0 0 1 6.99946,7.79348" />
    <path
       style="opacity:1;fill:#9a938c;fill-opacity:1;stroke:none;stroke-opacity:1"
       id="path5718-07-1"
       sodipodi:type="arc"
       sodipodi:cx="8.4435043"
       sodipodi:cy="153.59845"
       sodipodi:rx="6.9936037"
       sodipodi:ry="7.8021979"
       sodipodi:start="0"
       sodipodi:end="6.2820683"
       sodipodi:open="true"
       d="m 15.437108,153.59845 a 6.9936037,7.8021979 0 0 1 -6.9916507,7.8022 6.9936037,7.8021979 0 0 1 -6.9955556,-7.79784 6.9936037,7.8021979 0 0 1 6.9877437,-7.80656 6.9936037,7.8021979 0 0 1 6.9994586,7.79348" />
    <path
       style="opacity:1;fill:#9a938c;fill-opacity:1;stroke:none;stroke-opacity:1"
       id="path5718-84-1"
       sodipodi:type="arc"
       sodipodi:cx="328.40082"
       sodipodi:cy="498.8457"
       sodipodi:rx="6.9936037"
       sodipodi:ry="7.8021979"
       sodipodi:start="0"
       sodipodi:end="6.2820683"
       sodipodi:open="true"
       d="m 335.39442,498.8457 a 6.9936037,7.8021979 0 0 1 -6.99165,7.8022 6.9936037,7.8021979 0 0 1 -6.99555,-7.79784 6.9936037,7.8021979 0 0 1 6.98774,-7.80655 6.9936037,7.8021979 0 0 1 6.99946,7.79348" />
    <path
       style="opacity:1;fill:#716a63;fill-opacity:1;stroke:none;stroke-opacity:1"
       id="path5698-5-7"
       sodipodi:type="arc"
       sodipodi:cx="-491.89761"
       sodipodi:cy="373.8595"
       sodipodi:rx="5.2452025"
       sodipodi:ry="2.9258239"
       sodipodi:start="0"
       sodipodi:end="6.2820683"
       sodipodi:open="true"
       d="m -486.65241,373.8595 a 5.2452025,2.9258239 0 0 1 -5.24374,2.92582 5.2452025,2.9258239 0 0 1 -5.24667,-2.92419 5.2452025,2.9258239 0 0 1 5.24081,-2.92746 5.2452025,2.9258239 0 0 1 5.2496,2.92256" />
    <path
       style="opacity:1;fill:#716a63;fill-opacity:1;stroke:none;stroke-opacity:1"
       id="path5718-2-0"
       sodipodi:type="arc"
       sodipodi:cx="-479.65884"
       sodipodi:cy="450.90619"
       sodipodi:rx="6.9936037"
       sodipodi:ry="7.8021979"
       sodipodi:start="0"
       sodipodi:end="6.2820683"
       sodipodi:open="true"
       d="m -472.66524,450.90619 a 6.9936037,7.8021979 0 0 1 -6.99165,7.8022 6.9936037,7.8021979 0 0 1 -6.99556,-7.79784 6.9936037,7.8021979 0 0 1 6.98775,-7.80656 6.9936037,7.8021979 0 0 1 6.99946,7.79348" />
    <path
       style="opacity:1;fill:#716a63;fill-opacity:1;stroke:none;stroke-opacity:1"
       id="path5718-1-4-5"
       sodipodi:type="arc"
       sodipodi:cx="-112.49458"
       sodipodi:cy="464.56"
       sodipodi:rx="6.9936037"
       sodipodi:ry="7.8021979"
       sodipodi:start="0"
       sodipodi:end="6.2820683"
       sodipodi:open="true"
       d="m -105.50098,464.56 a 6.9936037,7.8021979 0 0 1 -6.99165,7.8022 6.9936037,7.8021979 0 0 1 -6.99556,-7.79784 6.9936037,7.8021979 0 0 1 6.98775,-7.80656 6.9936037,7.8021979 0 0 1 6.99946,7.79348" />
    <path
       style="opacity:1;fill:#716a63;fill-opacity:1;stroke:none;stroke-opacity:1"
       id="path5718-0-2-7"
       sodipodi:type="arc"
       sodipodi:cx="-147.46272"
       sodipodi:cy="727.88428"
       sodipodi:rx="6.9936037"
       sodipodi:ry="7.8021979"
       sodipodi:start="0"
       sodipodi:end="6.2820683"
       sodipodi:open="true"
       d="m -140.46912,727.88428 a 6.9936037,7.8021979 0 0 1 -6.99165,7.80219 6.9936037,7.8021979 0 0 1 -6.99556,-7.79784 6.9936037,7.8021979 0 0 1 6.98775,-7.80655 6.9936037,7.8021979 0 0 1 6.99946,7.79348" />
    <path
       style="opacity:1;fill:#716a63;fill-opacity:1;stroke:none;stroke-opacity:1"
       id="path5718-12-5-5"
       sodipodi:type="arc"
       sodipodi:cx="-456.9296"
       sodipodi:cy="569.88965"
       sodipodi:rx="6.9936037"
       sodipodi:ry="7.8021979"
       sodipodi:start="0"
       sodipodi:end="6.2820683"
       sodipodi:open="true"
       d="m -449.93599,569.88965 a 6.9936037,7.8021979 0 0 1 -6.99165,7.8022 6.9936037,7.8021979 0 0 1 -6.99556,-7.79784 6.9936037,7.8021979 0 0 1 6.98775,-7.80656 6.9936037,7.8021979 0 0 1 6.99945,7.79348" />
    <path
       style="opacity:1;fill:#716a63;fill-opacity:1;stroke:none;stroke-opacity:1"
       id="path5718-5-8-1"
       sodipodi:type="arc"
       sodipodi:cx="184.73351"
       sodipodi:cy="525.02704"
       sodipodi:rx="6.9936037"
       sodipodi:ry="7.8021979"
       sodipodi:start="0"
       sodipodi:end="6.2820683"
       sodipodi:open="true"
       d="m 191.72711,525.02704 a 6.9936037,7.8021979 0 0 1 -6.99165,7.8022 6.9936037,7.8021979 0 0 1 -6.99556,-7.79784 6.9936037,7.8021979 0 0 1 6.98775,-7.80656 6.9936037,7.8021979 0 0 1 6.99945,7.79348" />
    <path
       style="opacity:1;fill:#716a63;fill-opacity:1;stroke:none;stroke-opacity:1"
       id="path5718-10-2-4"
       sodipodi:type="arc"
       sodipodi:cx="247.67589"
       sodipodi:cy="813.70837"
       sodipodi:rx="6.9936037"
       sodipodi:ry="7.8021979"
       sodipodi:start="0"
       sodipodi:end="6.2820683"
       sodipodi:open="true"
       d="m 254.66949,813.70837 a 6.9936037,7.8021979 0 0 1 -6.99165,7.8022 6.9936037,7.8021979 0 0 1 -6.99555,-7.79784 6.9936037,7.8021979 0 0 1 6.98774,-7.80655 6.9936037,7.8021979 0 0 1 6.99946,7.79348" />
    <path
       style="opacity:1;fill:#716a63;fill-opacity:1;stroke:none;stroke-opacity:1"
       id="path5718-50-4-2"
       sodipodi:type="arc"
       sodipodi:cx="-210.40511"
       sodipodi:cy="614.75226"
       sodipodi:rx="6.9936037"
       sodipodi:ry="7.8021979"
       sodipodi:start="0"
       sodipodi:end="6.2820683"
       sodipodi:open="true"
       d="m -203.4115,614.75226 a 6.9936037,7.8021979 0 0 1 -6.99165,7.8022 6.9936037,7.8021979 0 0 1 -6.99556,-7.79784 6.9936037,7.8021979 0 0 1 6.98775,-7.80656 6.9936037,7.8021979 0 0 1 6.99945,7.79348" />
    <path
       style="opacity:1;fill:#716a63;fill-opacity:1;stroke:none;stroke-opacity:1"
       id="path5718-8-3-6"
       sodipodi:type="arc"
       sodipodi:cx="-404.4776"
       sodipodi:cy="897.58191"
       sodipodi:rx="6.9936037"
       sodipodi:ry="7.8021979"
       sodipodi:start="0"
       sodipodi:end="6.2820683"
       sodipodi:open="true"
       d="m -397.484,897.58191 a 6.9936037,7.8021979 0 0 1 -6.99165,7.8022 6.9936037,7.8021979 0 0 1 -6.99555,-7.79784 6.9936037,7.8021979 0 0 1 6.98774,-7.80656 6.9936037,7.8021979 0 0 1 6.99946,7.79348" />
    <path
       style="opacity:1;fill:#716a63;fill-opacity:1;stroke:none;stroke-opacity:1"
       id="path5718-9-4-9"
       sodipodi:type="arc"
       sodipodi:cx="378.80588"
       sodipodi:cy="626.45557"
       sodipodi:rx="6.9936037"
       sodipodi:ry="7.8021979"
       sodipodi:start="0"
       sodipodi:end="6.2820683"
       sodipodi:open="true"
       d="m 385.79948,626.45557 a 6.9936037,7.8021979 0 0 1 -6.99165,7.80219 6.9936037,7.8021979 0 0 1 -6.99555,-7.79784 6.9936037,7.8021979 0 0 1 6.98774,-7.80655 6.9936037,7.8021979 0 0 1 6.99946,7.79348" />
    <path
       style="opacity:1;fill:#716a63;fill-opacity:1;stroke:none;stroke-opacity:1"
       id="path5718-97-2-0"
       sodipodi:type="arc"
       sodipodi:cx="433.00632"
       sodipodi:cy="439.20288"
       sodipodi:rx="6.9936037"
       sodipodi:ry="7.8021979"
       sodipodi:start="0"
       sodipodi:end="6.2820683"
       sodipodi:open="true"
       d="m 439.99992,439.20288 a 6.9936037,7.8021979 0 0 1 -6.99165,7.8022 6.9936037,7.8021979 0 0 1 -6.99556,-7.79784 6.9936037,7.8021979 0 0 1 6.98775,-7.80655 6.9936037,7.8021979 0 0 1 6.99946,7.79348" />
    <path
       style="opacity:1;fill:#716a63;fill-opacity:1;stroke:none;stroke-opacity:1"
       id="path5718-07-1-5"
       sodipodi:type="arc"
       sodipodi:cx="111.30064"
       sodipodi:cy="626.45557"
       sodipodi:rx="6.9936037"
       sodipodi:ry="7.8021979"
       sodipodi:start="0"
       sodipodi:end="6.2820683"
       sodipodi:open="true"
       d="m 118.29424,626.45557 a 6.9936037,7.8021979 0 0 1 -6.99165,7.80219 6.9936037,7.8021979 0 0 1 -6.99556,-7.79784 6.9936037,7.8021979 0 0 1 6.98775,-7.80655 6.9936037,7.8021979 0 0 1 6.99946,7.79348" />
    <path
       style="opacity:1;fill:#716a63;fill-opacity:1;stroke:none;stroke-opacity:1"
       id="path5718-84-1-3"
       sodipodi:type="arc"
       sodipodi:cx="431.2579"
       sodipodi:cy="971.70282"
       sodipodi:rx="6.9936037"
       sodipodi:ry="7.8021979"
       sodipodi:start="0"
       sodipodi:end="6.2820683"
       sodipodi:open="true"
       d="m 438.25151,971.70282 a 6.9936037,7.8021979 0 0 1 -6.99165,7.8022 6.9936037,7.8021979 0 0 1 -6.99556,-7.79784 6.9936037,7.8021979 0 0 1 6.98775,-7.80656 6.9936037,7.8021979 0 0 1 6.99945,7.79348" />
    <path
       style="opacity:1;fill:#46413d;fill-opacity:1;stroke:none;stroke-opacity:1"
       id="path5698-5-7-3"
       sodipodi:type="arc"
       sodipodi:cx="455.89029"
       sodipodi:cy="27.568289"
       sodipodi:rx="4.4616203"
       sodipodi:ry="2.3489008"
       sodipodi:start="0"
       sodipodi:end="6.2820683"
       sodipodi:open="true"
       d="m 460.35191,27.568289 a 4.4616203,2.3489008 0 0 1 -4.46037,2.348901 4.4616203,2.3489008 0 0 1 -4.46287,-2.347589 4.4616203,2.3489008 0 0 1 4.45788,-2.350212 4.4616203,2.3489008 0 0 1 4.46536,2.346276" />
    <path
       style="opacity:1;fill:#46413d;fill-opacity:1;stroke:none;stroke-opacity:1"
       id="path5718-2-0-0"
       sodipodi:type="arc"
       sodipodi:cx="466.30069"
       sodipodi:cy="89.422668"
       sodipodi:rx="5.9488273"
       sodipodi:ry="6.2637362"
       sodipodi:start="0"
       sodipodi:end="6.2820683"
       sodipodi:open="true"
       d="m 472.24952,89.422668 a 5.9488273,6.2637362 0 0 1 -5.94717,6.263736 5.9488273,6.2637362 0 0 1 -5.95049,-6.260237 5.9488273,6.2637362 0 0 1 5.94385,-6.267233 5.9488273,6.2637362 0 0 1 5.9538,6.256738" />
    <path
       style="opacity:1;fill:#46413d;fill-opacity:1;stroke:none;stroke-opacity:1"
       id="path5718-1-4-5-6"
       sodipodi:type="arc"
       sodipodi:cx="778.61414"
       sodipodi:cy="100.38418"
       sodipodi:rx="5.9488273"
       sodipodi:ry="6.2637362"
       sodipodi:start="0"
       sodipodi:end="6.2820683"
       sodipodi:open="true"
       d="m 784.56296,100.38418 a 5.9488273,6.2637362 0 0 1 -5.94716,6.26373 5.9488273,6.2637362 0 0 1 -5.95049,-6.26023 5.9488273,6.2637362 0 0 1 5.94384,-6.267236 5.9488273,6.2637362 0 0 1 5.95381,6.256736" />
    <path
       style="opacity:1;fill:#46413d;fill-opacity:1;stroke:none;stroke-opacity:1"
       id="path5718-0-2-7-6"
       sodipodi:type="arc"
       sodipodi:cx="748.86993"
       sodipodi:cy="311.78534"
       sodipodi:rx="5.9488273"
       sodipodi:ry="6.2637362"
       sodipodi:start="0"
       sodipodi:end="6.2820683"
       sodipodi:open="true"
       d="m 754.81876,311.78534 a 5.9488273,6.2637362 0 0 1 -5.94716,6.26374 5.9488273,6.2637362 0 0 1 -5.95049,-6.26024 5.9488273,6.2637362 0 0 1 5.94384,-6.26723 5.9488273,6.2637362 0 0 1 5.95381,6.25673" />
    <path
       style="opacity:1;fill:#46413d;fill-opacity:1;stroke:none;stroke-opacity:1"
       id="path5718-12-5-5-8"
       sodipodi:type="arc"
       sodipodi:cx="485.6344"
       sodipodi:cy="184.94461"
       sodipodi:rx="5.9488273"
       sodipodi:ry="6.2637362"
       sodipodi:start="0"
       sodipodi:end="6.2820683"
       sodipodi:open="true"
       d="m 491.58323,184.94461 a 5.9488273,6.2637362 0 0 1 -5.94717,6.26374 5.9488273,6.2637362 0 0 1 -5.95049,-6.26024 5.9488273,6.2637362 0 0 1 5.94385,-6.26723 5.9488273,6.2637362 0 0 1 5.9538,6.25673" />
    <path
       style="opacity:1;fill:#46413d;fill-opacity:1;stroke:none;stroke-opacity:1"
       id="path5718-5-8-1-2"
       sodipodi:type="arc"
       sodipodi:cx="1031.4392"
       sodipodi:cy="148.92815"
       sodipodi:rx="5.9488273"
       sodipodi:ry="6.2637362"
       sodipodi:start="0"
       sodipodi:end="6.2820683"
       sodipodi:open="true"
       d="m 1037.388,148.92815 a 5.9488273,6.2637362 0 0 1 -5.9471,6.26373 5.9488273,6.2637362 0 0 1 -5.9505,-6.26024 5.9488273,6.2637362 0 0 1 5.9438,-6.26723 5.9488273,6.2637362 0 0 1 5.9538,6.25674" />
    <path
       style="opacity:1;fill:#46413d;fill-opacity:1;stroke:none;stroke-opacity:1"
       id="path5718-10-2-4-7"
       sodipodi:type="arc"
       sodipodi:cx="1084.9788"
       sodipodi:cy="380.68637"
       sodipodi:rx="5.9488273"
       sodipodi:ry="6.2637362"
       sodipodi:start="0"
       sodipodi:end="6.2820683"
       sodipodi:open="true"
       d="m 1090.9276,380.68637 a 5.9488273,6.2637362 0 0 1 -5.9472,6.26374 5.9488273,6.2637362 0 0 1 -5.9505,-6.26024 5.9488273,6.2637362 0 0 1 5.9439,-6.26723 5.9488273,6.2637362 0 0 1 5.9538,6.25673" />
    <path
       style="opacity:1;fill:#46413d;fill-opacity:1;stroke:none;stroke-opacity:1"
       id="path5718-50-4-2-6"
       sodipodi:type="arc"
       sodipodi:cx="695.33051"
       sodipodi:cy="220.96106"
       sodipodi:rx="5.9488273"
       sodipodi:ry="6.2637362"
       sodipodi:start="0"
       sodipodi:end="6.2820683"
       sodipodi:open="true"
       d="m 701.27933,220.96106 a 5.9488273,6.2637362 0 0 1 -5.94716,6.26374 5.9488273,6.2637362 0 0 1 -5.95049,-6.26024 5.9488273,6.2637362 0 0 1 5.94384,-6.26723 5.9488273,6.2637362 0 0 1 5.95381,6.25673" />
    <path
       style="opacity:1;fill:#46413d;fill-opacity:1;stroke:none;stroke-opacity:1"
       id="path5718-8-3-6-6"
       sodipodi:type="arc"
       sodipodi:cx="530.25061"
       sodipodi:cy="448.02148"
       sodipodi:rx="5.9488273"
       sodipodi:ry="6.2637362"
       sodipodi:start="0"
       sodipodi:end="6.2820683"
       sodipodi:open="true"
       d="m 536.19944,448.02148 a 5.9488273,6.2637362 0 0 1 -5.94717,6.26374 5.9488273,6.2637362 0 0 1 -5.95049,-6.26024 5.9488273,6.2637362 0 0 1 5.94385,-6.26723 5.9488273,6.2637362 0 0 1 5.9538,6.25674" />
    <path
       style="opacity:1;fill:#46413d;fill-opacity:1;stroke:none;stroke-opacity:1"
       id="path5718-9-4-9-3"
       sodipodi:type="arc"
       sodipodi:cx="1196.5192"
       sodipodi:cy="230.35667"
       sodipodi:rx="5.9488273"
       sodipodi:ry="6.2637362"
       sodipodi:start="0"
       sodipodi:end="6.2820683"
       sodipodi:open="true"
       d="m 1202.468,230.35667 a 5.9488273,6.2637362 0 0 1 -5.9472,6.26374 5.9488273,6.2637362 0 0 1 -5.9505,-6.26024 5.9488273,6.2637362 0 0 1 5.9439,-6.26723 5.9488273,6.2637362 0 0 1 5.9538,6.25674" />
    <path
       style="opacity:1;fill:#46413d;fill-opacity:1;stroke:none;stroke-opacity:1"
       id="path5718-97-2-0-5"
       sodipodi:type="arc"
       sodipodi:cx="1242.6226"
       sodipodi:cy="80.027061"
       sodipodi:rx="5.9488273"
       sodipodi:ry="6.2637362"
       sodipodi:start="0"
       sodipodi:end="6.2820683"
       sodipodi:open="true"
       d="m 1248.5714,80.027061 a 5.9488273,6.2637362 0 0 1 -5.9472,6.263736 5.9488273,6.2637362 0 0 1 -5.9505,-6.260237 5.9488273,6.2637362 0 0 1 5.9439,-6.267233 5.9488273,6.2637362 0 0 1 5.9538,6.256738" />
    <path
       style="opacity:1;fill:#46413d;fill-opacity:1;stroke:none;stroke-opacity:1"
       id="path5718-07-1-5-1"
       sodipodi:type="arc"
       sodipodi:cx="968.97656"
       sodipodi:cy="230.35667"
       sodipodi:rx="5.9488273"
       sodipodi:ry="6.2637362"
       sodipodi:start="0"
       sodipodi:end="6.2820683"
       sodipodi:open="true"
       d="m 974.92539,230.35667 a 5.9488273,6.2637362 0 0 1 -5.94717,6.26374 5.9488273,6.2637362 0 0 1 -5.95048,-6.26024 5.9488273,6.2637362 0 0 1 5.94384,-6.26723 5.9488273,6.2637362 0 0 1 5.95381,6.25674" />
    <path
       style="opacity:1;fill:#46413d;fill-opacity:1;stroke:none;stroke-opacity:1"
       id="path5718-84-1-3-9"
       sodipodi:type="arc"
       sodipodi:cx="1241.1354"
       sodipodi:cy="507.52698"
       sodipodi:rx="5.9488273"
       sodipodi:ry="6.2637362"
       sodipodi:start="0"
       sodipodi:end="6.2820683"
       sodipodi:open="true"
       d="m 1247.0842,507.52698 a 5.9488273,6.2637362 0 0 1 -5.9472,6.26373 5.9488273,6.2637362 0 0 1 -5.9505,-6.26023 5.9488273,6.2637362 0 0 1 5.9439,-6.26724 5.9488273,6.2637362 0 0 1 5.9538,6.25674" />
    <path
       style="opacity:1;fill:#46413d;fill-opacity:1;stroke:none;stroke-opacity:1"
       id="path5698-5-7-3-5"
       sodipodi:type="arc"
       sodipodi:cx="-548.39545"
       sodipodi:cy="-35.288826"
       sodipodi:rx="4.4616203"
       sodipodi:ry="2.3489008"
       sodipodi:start="0"
       sodipodi:end="6.2820683"
       sodipodi:open="true"
       d="m -543.93383,-35.288826 a 4.4616203,2.3489008 0 0 1 -4.46037,2.348901 4.4616203,2.3489008 0 0 1 -4.46287,-2.347589 4.4616203,2.3489008 0 0 1 4.45789,-2.350212 4.4616203,2.3489008 0 0 1 4.46535,2.346276" />
    <path
       style="opacity:1;fill:#46413d;fill-opacity:1;stroke:none;stroke-opacity:1"
       id="path5718-2-0-0-2"
       sodipodi:type="arc"
       sodipodi:cx="-537.98505"
       sodipodi:cy="26.565542"
       sodipodi:rx="5.9488273"
       sodipodi:ry="6.2637362"
       sodipodi:start="0"
       sodipodi:end="6.2820683"
       sodipodi:open="true"
       d="m -532.03622,26.565542 a 5.9488273,6.2637362 0 0 1 -5.94717,6.263736 5.9488273,6.2637362 0 0 1 -5.95048,-6.260237 5.9488273,6.2637362 0 0 1 5.94384,-6.267233 5.9488273,6.2637362 0 0 1 5.95381,6.256738" />
    <path
       style="opacity:1;fill:#46413d;fill-opacity:1;stroke:none;stroke-opacity:1"
       id="path5718-1-4-5-6-6"
       sodipodi:type="arc"
       sodipodi:cx="-225.67165"
       sodipodi:cy="37.527031"
       sodipodi:rx="5.9488273"
       sodipodi:ry="6.2637362"
       sodipodi:start="0"
       sodipodi:end="6.2820683"
       sodipodi:open="true"
       d="m -219.72282,37.527031 a 5.9488273,6.2637362 0 0 1 -5.94716,6.263736 5.9488273,6.2637362 0 0 1 -5.95049,-6.260238 5.9488273,6.2637362 0 0 1 5.94384,-6.267232 5.9488273,6.2637362 0 0 1 5.95381,6.256737" />
    <path
       style="opacity:1;fill:#46413d;fill-opacity:1;stroke:none;stroke-opacity:1"
       id="path5718-0-2-7-6-8"
       sodipodi:type="arc"
       sodipodi:cx="-255.41585"
       sodipodi:cy="248.92821"
       sodipodi:rx="5.9488273"
       sodipodi:ry="6.2637362"
       sodipodi:start="0"
       sodipodi:end="6.2820683"
       sodipodi:open="true"
       d="m -249.46702,248.92821 a 5.9488273,6.2637362 0 0 1 -5.94717,6.26373 5.9488273,6.2637362 0 0 1 -5.95048,-6.26023 5.9488273,6.2637362 0 0 1 5.94384,-6.26724 5.9488273,6.2637362 0 0 1 5.95381,6.25674" />
    <path
       style="opacity:1;fill:#46413d;fill-opacity:1;stroke:none;stroke-opacity:1"
       id="path5718-12-5-5-8-4"
       sodipodi:type="arc"
       sodipodi:cx="-518.65131"
       sodipodi:cy="122.08746"
       sodipodi:rx="5.9488273"
       sodipodi:ry="6.2637362"
       sodipodi:start="0"
       sodipodi:end="6.2820683"
       sodipodi:open="true"
       d="m -512.70248,122.08746 a 5.9488273,6.2637362 0 0 1 -5.94716,6.26374 5.9488273,6.2637362 0 0 1 -5.95049,-6.26024 5.9488273,6.2637362 0 0 1 5.94384,-6.26723 5.9488273,6.2637362 0 0 1 5.95381,6.25674" />
    <path
       style="opacity:1;fill:#46413d;fill-opacity:1;stroke:none;stroke-opacity:1"
       id="path5718-5-8-1-2-3"
       sodipodi:type="arc"
       sodipodi:cx="27.153425"
       sodipodi:cy="86.071037"
       sodipodi:rx="5.9488273"
       sodipodi:ry="6.2637362"
       sodipodi:start="0"
       sodipodi:end="6.2820683"
       sodipodi:open="true"
       d="m 33.102252,86.071037 a 5.9488273,6.2637362 0 0 1 -5.947166,6.263736 5.9488273,6.2637362 0 0 1 -5.950487,-6.260237 5.9488273,6.2637362 0 0 1 5.943843,-6.267233 5.9488273,6.2637362 0 0 1 5.953807,6.256738" />
    <path
       style="opacity:1;fill:#46413d;fill-opacity:1;stroke:none;stroke-opacity:1"
       id="path5718-10-2-4-7-3"
       sodipodi:type="arc"
       sodipodi:cx="80.692978"
       sodipodi:cy="317.82922"
       sodipodi:rx="5.9488273"
       sodipodi:ry="6.2637362"
       sodipodi:start="0"
       sodipodi:end="6.2820683"
       sodipodi:open="true"
       d="m 86.641805,317.82922 a 5.9488273,6.2637362 0 0 1 -5.947166,6.26374 5.9488273,6.2637362 0 0 1 -5.950487,-6.26024 5.9488273,6.2637362 0 0 1 5.943842,-6.26723 5.9488273,6.2637362 0 0 1 5.953807,6.25674" />
    <path
       style="opacity:1;fill:#46413d;fill-opacity:1;stroke:none;stroke-opacity:1"
       id="path5718-50-4-2-6-8"
       sodipodi:type="arc"
       sodipodi:cx="-308.95523"
       sodipodi:cy="158.10393"
       sodipodi:rx="5.9488273"
       sodipodi:ry="6.2637362"
       sodipodi:start="0"
       sodipodi:end="6.2820683"
       sodipodi:open="true"
       d="m -303.0064,158.10393 a 5.9488273,6.2637362 0 0 1 -5.94717,6.26373 5.9488273,6.2637362 0 0 1 -5.95049,-6.26023 5.9488273,6.2637362 0 0 1 5.94385,-6.26724 5.9488273,6.2637362 0 0 1 5.9538,6.25674" />
    <path
       style="opacity:1;fill:#46413d;fill-opacity:1;stroke:none;stroke-opacity:1"
       id="path5718-8-3-6-6-9"
       sodipodi:type="arc"
       sodipodi:cx="-474.03513"
       sodipodi:cy="385.16437"
       sodipodi:rx="5.9488273"
       sodipodi:ry="6.2637362"
       sodipodi:start="0"
       sodipodi:end="6.2820683"
       sodipodi:open="true"
       d="m -468.0863,385.16437 a 5.9488273,6.2637362 0 0 1 -5.94716,6.26373 5.9488273,6.2637362 0 0 1 -5.95049,-6.26023 5.9488273,6.2637362 0 0 1 5.94384,-6.26724 5.9488273,6.2637362 0 0 1 5.95381,6.25674" />
    <path
       style="opacity:1;fill:#46413d;fill-opacity:1;stroke:none;stroke-opacity:1"
       id="path5718-9-4-9-3-0"
       sodipodi:type="arc"
       sodipodi:cx="192.23338"
       sodipodi:cy="167.49956"
       sodipodi:rx="5.9488273"
       sodipodi:ry="6.2637362"
       sodipodi:start="0"
       sodipodi:end="6.2820683"
       sodipodi:open="true"
       d="m 198.18221,167.49956 a 5.9488273,6.2637362 0 0 1 -5.94717,6.26373 5.9488273,6.2637362 0 0 1 -5.95048,-6.26023 5.9488273,6.2637362 0 0 1 5.94384,-6.26724 5.9488273,6.2637362 0 0 1 5.95381,6.25674" />
    <path
       style="opacity:1;fill:#46413d;fill-opacity:1;stroke:none;stroke-opacity:1"
       id="path5718-97-2-0-5-4"
       sodipodi:type="arc"
       sodipodi:cx="238.33678"
       sodipodi:cy="17.169943"
       sodipodi:rx="5.9488273"
       sodipodi:ry="6.2637362"
       sodipodi:start="0"
       sodipodi:end="6.2820683"
       sodipodi:open="true"
       d="m 244.2856,17.169943 a 5.9488273,6.2637362 0 0 1 -5.94716,6.263736 5.9488273,6.2637362 0 0 1 -5.95049,-6.260238 5.9488273,6.2637362 0 0 1 5.94384,-6.267232 5.9488273,6.2637362 0 0 1 5.95381,6.256737" />
    <path
       style="opacity:1;fill:#46413d;fill-opacity:1;stroke:none;stroke-opacity:1"
       id="path5718-07-1-5-1-4"
       sodipodi:type="arc"
       sodipodi:cx="-35.309223"
       sodipodi:cy="167.49956"
       sodipodi:rx="5.9488273"
       sodipodi:ry="6.2637362"
       sodipodi:start="0"
       sodipodi:end="6.2820683"
       sodipodi:open="true"
       d="m -29.360396,167.49956 a 5.9488273,6.2637362 0 0 1 -5.947166,6.26373 5.9488273,6.2637362 0 0 1 -5.950488,-6.26023 5.9488273,6.2637362 0 0 1 5.943843,-6.26724 5.9488273,6.2637362 0 0 1 5.953807,6.25674" />
    <path
       style="opacity:1;fill:#46413d;fill-opacity:1;stroke:none;stroke-opacity:1"
       id="path5718-84-1-3-9-2"
       sodipodi:type="arc"
       sodipodi:cx="236.84959"
       sodipodi:cy="444.66986"
       sodipodi:rx="5.9488273"
       sodipodi:ry="6.2637362"
       sodipodi:start="0"
       sodipodi:end="6.2820683"
       sodipodi:open="true"
       d="m 242.79842,444.66986 a 5.9488273,6.2637362 0 0 1 -5.94716,6.26374 5.9488273,6.2637362 0 0 1 -5.95049,-6.26024 5.9488273,6.2637362 0 0 1 5.94384,-6.26723 5.9488273,6.2637362 0 0 1 5.95381,6.25673" />
    <path
       style="opacity:1;fill:#4e4844;fill-opacity:1;stroke:none;stroke-opacity:1"
       id="path5698-5-7-3-5-0"
       sodipodi:type="arc"
       sodipodi:cx="-94.109703"
       sodipodi:cy="407.5683"
       sodipodi:rx="4.4616203"
       sodipodi:ry="2.3489008"
       sodipodi:start="0"
       sodipodi:end="6.2820683"
       sodipodi:open="true"
       d="m -89.648083,407.5683 a 4.4616203,2.3489008 0 0 1 -4.460374,2.3489 4.4616203,2.3489008 0 0 1 -4.462866,-2.34759 4.4616203,2.3489008 0 0 1 4.457882,-2.35021 4.4616203,2.3489008 0 0 1 4.465355,2.34627" />
    <path
       style="opacity:1;fill:#4e4844;fill-opacity:1;stroke:none;stroke-opacity:1"
       id="path5718-2-0-0-2-5"
       sodipodi:type="arc"
       sodipodi:cx="-83.699303"
       sodipodi:cy="469.42267"
       sodipodi:rx="5.9488273"
       sodipodi:ry="6.2637362"
       sodipodi:start="0"
       sodipodi:end="6.2820683"
       sodipodi:open="true"
       d="m -77.750475,469.42267 a 5.9488273,6.2637362 0 0 1 -5.947166,6.26373 5.9488273,6.2637362 0 0 1 -5.950488,-6.26023 5.9488273,6.2637362 0 0 1 5.943843,-6.26724 5.9488273,6.2637362 0 0 1 5.953807,6.25674" />
    <path
       style="opacity:1;fill:#4e4844;fill-opacity:1;stroke:none;stroke-opacity:1"
       id="path5718-1-4-5-6-6-9"
       sodipodi:type="arc"
       sodipodi:cx="228.61411"
       sodipodi:cy="480.38416"
       sodipodi:rx="5.9488273"
       sodipodi:ry="6.2637362"
       sodipodi:start="0"
       sodipodi:end="6.2820683"
       sodipodi:open="true"
       d="m 234.56293,480.38416 a 5.9488273,6.2637362 0 0 1 -5.94716,6.26373 5.9488273,6.2637362 0 0 1 -5.95049,-6.26024 5.9488273,6.2637362 0 0 1 5.94384,-6.26723 5.9488273,6.2637362 0 0 1 5.95381,6.25674" />
    <path
       style="opacity:1;fill:#4e4844;fill-opacity:1;stroke:none;stroke-opacity:1"
       id="path5718-0-2-7-6-8-1"
       sodipodi:type="arc"
       sodipodi:cx="198.8699"
       sodipodi:cy="691.78534"
       sodipodi:rx="5.9488273"
       sodipodi:ry="6.2637362"
       sodipodi:start="0"
       sodipodi:end="6.2820683"
       sodipodi:open="true"
       d="m 204.81873,691.78534 a 5.9488273,6.2637362 0 0 1 -5.94717,6.26374 5.9488273,6.2637362 0 0 1 -5.95048,-6.26024 5.9488273,6.2637362 0 0 1 5.94384,-6.26723 5.9488273,6.2637362 0 0 1 5.95381,6.25673" />
    <path
       style="opacity:1;fill:#4e4844;fill-opacity:1;stroke:none;stroke-opacity:1"
       id="path5718-12-5-5-8-4-1"
       sodipodi:type="arc"
       sodipodi:cx="-64.365562"
       sodipodi:cy="564.94458"
       sodipodi:rx="5.9488273"
       sodipodi:ry="6.2637362"
       sodipodi:start="0"
       sodipodi:end="6.2820683"
       sodipodi:open="true"
       d="m -58.416735,564.94458 a 5.9488273,6.2637362 0 0 1 -5.947166,6.26374 5.9488273,6.2637362 0 0 1 -5.950488,-6.26024 5.9488273,6.2637362 0 0 1 5.943843,-6.26723 5.9488273,6.2637362 0 0 1 5.953807,6.25673" />
    <path
       style="opacity:1;fill:#4e4844;fill-opacity:1;stroke:none;stroke-opacity:1"
       id="path5718-5-8-1-2-3-3"
       sodipodi:type="arc"
       sodipodi:cx="481.43912"
       sodipodi:cy="528.92816"
       sodipodi:rx="5.9488273"
       sodipodi:ry="6.2637362"
       sodipodi:start="0"
       sodipodi:end="6.2820683"
       sodipodi:open="true"
       d="m 487.38794,528.92816 a 5.9488273,6.2637362 0 0 1 -5.94716,6.26374 5.9488273,6.2637362 0 0 1 -5.95049,-6.26024 5.9488273,6.2637362 0 0 1 5.94384,-6.26723 5.9488273,6.2637362 0 0 1 5.95381,6.25673" />
    <path
       style="opacity:1;fill:#4e4844;fill-opacity:1;stroke:none;stroke-opacity:1"
       id="path5718-10-2-4-7-3-2"
       sodipodi:type="arc"
       sodipodi:cx="534.9787"
       sodipodi:cy="760.68634"
       sodipodi:rx="5.9488273"
       sodipodi:ry="6.2637362"
       sodipodi:start="0"
       sodipodi:end="6.2820683"
       sodipodi:open="true"
       d="m 540.92753,760.68634 a 5.9488273,6.2637362 0 0 1 -5.94717,6.26374 5.9488273,6.2637362 0 0 1 -5.95049,-6.26024 5.9488273,6.2637362 0 0 1 5.94385,-6.26723 5.9488273,6.2637362 0 0 1 5.9538,6.25673" />
    <path
       style="opacity:1;fill:#4e4844;fill-opacity:1;stroke:none;stroke-opacity:1"
       id="path5718-50-4-2-6-8-0"
       sodipodi:type="arc"
       sodipodi:cx="145.33047"
       sodipodi:cy="600.96106"
       sodipodi:rx="5.9488273"
       sodipodi:ry="6.2637362"
       sodipodi:start="0"
       sodipodi:end="6.2820683"
       sodipodi:open="true"
       d="m 151.2793,600.96106 a 5.9488273,6.2637362 0 0 1 -5.94716,6.26374 5.9488273,6.2637362 0 0 1 -5.95049,-6.26024 5.9488273,6.2637362 0 0 1 5.94384,-6.26723 5.9488273,6.2637362 0 0 1 5.95381,6.25673" />
    <path
       style="opacity:1;fill:#4e4844;fill-opacity:1;stroke:none;stroke-opacity:1"
       id="path5718-8-3-6-6-9-1"
       sodipodi:type="arc"
       sodipodi:cx="-19.749416"
       sodipodi:cy="828.02148"
       sodipodi:rx="5.9488273"
       sodipodi:ry="6.2637362"
       sodipodi:start="0"
       sodipodi:end="6.2820683"
       sodipodi:open="true"
       d="m -13.800589,828.02148 a 5.9488273,6.2637362 0 0 1 -5.947166,6.26374 5.9488273,6.2637362 0 0 1 -5.950488,-6.26024 5.9488273,6.2637362 0 0 1 5.943843,-6.26723 5.9488273,6.2637362 0 0 1 5.953807,6.25674" />
    <path
       style="opacity:1;fill:#4e4844;fill-opacity:1;stroke:none;stroke-opacity:1"
       id="path5718-9-4-9-3-0-0"
       sodipodi:type="arc"
       sodipodi:cx="646.5191"
       sodipodi:cy="610.35669"
       sodipodi:rx="5.9488273"
       sodipodi:ry="6.2637362"
       sodipodi:start="0"
       sodipodi:end="6.2820683"
       sodipodi:open="true"
       d="m 652.46793,610.35669 a 5.9488273,6.2637362 0 0 1 -5.94716,6.26374 5.9488273,6.2637362 0 0 1 -5.95049,-6.26024 5.9488273,6.2637362 0 0 1 5.94384,-6.26723 5.9488273,6.2637362 0 0 1 5.95381,6.25673" />
    <path
       style="opacity:1;fill:#4e4844;fill-opacity:1;stroke:none;stroke-opacity:1"
       id="path5718-97-2-0-5-4-0"
       sodipodi:type="arc"
       sodipodi:cx="692.6225"
       sodipodi:cy="460.0271"
       sodipodi:rx="5.9488273"
       sodipodi:ry="6.2637362"
       sodipodi:start="0"
       sodipodi:end="6.2820683"
       sodipodi:open="true"
       d="m 698.57132,460.0271 a 5.9488273,6.2637362 0 0 1 -5.94716,6.26374 5.9488273,6.2637362 0 0 1 -5.95049,-6.26024 5.9488273,6.2637362 0 0 1 5.94384,-6.26723 5.9488273,6.2637362 0 0 1 5.95381,6.25673" />
    <path
       style="opacity:1;fill:#4e4844;fill-opacity:1;stroke:none;stroke-opacity:1"
       id="path5718-07-1-5-1-4-6"
       sodipodi:type="arc"
       sodipodi:cx="418.97647"
       sodipodi:cy="610.35669"
       sodipodi:rx="5.9488273"
       sodipodi:ry="6.2637362"
       sodipodi:start="0"
       sodipodi:end="6.2820683"
       sodipodi:open="true"
       d="m 424.9253,610.35669 a 5.9488273,6.2637362 0 0 1 -5.94717,6.26374 5.9488273,6.2637362 0 0 1 -5.95049,-6.26024 5.9488273,6.2637362 0 0 1 5.94385,-6.26723 5.9488273,6.2637362 0 0 1 5.9538,6.25673" />
    <path
       style="opacity:1;fill:#4e4844;fill-opacity:1;stroke:none;stroke-opacity:1"
       id="path5718-84-1-3-9-2-6"
       sodipodi:type="arc"
       sodipodi:cx="691.13531"
       sodipodi:cy="887.52698"
       sodipodi:rx="5.9488273"
       sodipodi:ry="6.2637362"
       sodipodi:start="0"
       sodipodi:end="6.2820683"
       sodipodi:open="true"
       d="m 697.08414,887.52698 a 5.9488273,6.2637362 0 0 1 -5.94716,6.26373 5.9488273,6.2637362 0 0 1 -5.95049,-6.26023 5.9488273,6.2637362 0 0 1 5.94384,-6.26724 5.9488273,6.2637362 0 0 1 5.95381,6.25674" />
  </g>
</svg>
