<?xml version="1.0" encoding="UTF-8" standalone="no"?>
<svg version="1.1" xmlns:svg="http://www.w3.org/2000/svg" xmlns="http://www.w3.org/2000/svg" width="541.86664mm" height="304.79999mm" viewBox="0 0 1919.9999 1079.9999" >
  <rect style="fill:#0d0c0b" width="1920" height="1080" x="-6.1035156e-005" y="0" />
  <path style="fill:#0d0c0b" d="m 59.99989,64.285711 a 8.5714283,4.2857141 0 0 1 -8.56903,4.28572 8.5714283,4.2857141 0 0 1 -8.57382,-4.28332 8.5714283,4.2857141 0 0 1 8.56425,-4.28811 8.5714283,4.2857141 0 0 1 8.5786,4.28093" />
  <path style="fill:#c9c4bf" d="M 82.85704,177.14286 A 11.428572,11.428572 0 0 1 71.43166,188.57143 11.428572,11.428572 0 0 1 59.9999,177.14924 11.428572,11.428572 0 0 1 71.41889,165.71429 11.428572,11.428572 0 0 1 82.85703,177.13009" />
  <path style="fill:#c9c4bf" d="m 682.85707,197.14285 a 11.428572,11.428572 0 0 1 -11.42538,11.42857 11.428572,11.428572 0 0 1 -11.43177,-11.42219 11.428572,11.428572 0 0 1 11.419,-11.43495 11.428572,11.428572 0 0 1 11.43814,11.41581" />
  <path style="fill:#c9c4bf" d="m 625.71421,582.85715 a 11.428572,11.428572 0 0 1 -11.42538,11.42857 11.428572,11.428572 0 0 1 -11.43176,-11.42219 11.428572,11.428572 0 0 1 11.41899,-11.43495 11.428572,11.428572 0 0 1 11.43814,11.4158" />
  <path style="fill:#c9c4bf" d="m 119.99992,351.42856 a 11.428572,11.428572 0 0 1 -11.42538,11.42857 11.428572,11.428572 0 0 1 -11.43176,-11.42219 11.428572,11.428572 0 0 1 11.419,-11.43495 11.428572,11.428572 0 0 1 11.43813,11.4158" />
  <path style="fill:#c9c4bf" d="m 1168.5713,285.71428 a 11.428572,11.428572 0 0 1 -11.4254,11.42857 11.428572,11.428572 0 0 1 -11.4317,-11.42219 11.428572,11.428572 0 0 1 11.419,-11.43495 11.428572,11.428572 0 0 1 11.4381,11.4158" />
  <path style="fill:#c9c4bf" d="m 1271.4285,708.57144 a 11.428572,11.428572 0 0 1 -11.4254,11.42857 11.428572,11.428572 0 0 1 -11.4318,-11.42219 11.428572,11.428572 0 0 1 11.419,-11.43495 11.428572,11.428572 0 0 1 11.4382,11.4158" />
  <path style="fill:#c9c4bf" d="m 522.85706,417.14285 a 11.428572,11.428572 0 0 1 -11.42538,11.42857 11.428572,11.428572 0 0 1 -11.43176,-11.42219 11.428572,11.428572 0 0 1 11.419,-11.43495 11.428572,11.428572 0 0 1 11.43814,11.41581" />
  <path style="fill:#c9c4bf" d="m 205.71422,831.42856 a 11.428572,11.428572 0 0 1 -11.42538,11.42857 11.428572,11.428572 0 0 1 -11.43177,-11.42219 11.428572,11.428572 0 0 1 11.419,-11.43495 11.428572,11.428572 0 0 1 11.43814,11.4158" />
  <path style="fill:#c9c4bf" d="m 1485.7142,434.2857 a 11.428572,11.428572 0 0 1 -11.4254,11.42858 11.428572,11.428572 0 0 1 -11.4318,-11.42219 11.428572,11.428572 0 0 1 11.419,-11.43495 11.428572,11.428572 0 0 1 11.4382,11.4158" />
  <path style="fill:#c9c4bf" d="m 1574.2856,160 a 11.428572,11.428572 0 0 1 -11.4254,11.42857 11.428572,11.428572 0 0 1 -11.4317,-11.42219 11.428572,11.428572 0 0 1 11.4189,-11.43495 11.428572,11.428572 0 0 1 11.4382,11.4158" />
  <path style="fill:#c9c4bf" d="m 1002.857,340 a 11.428572,11.428572 0 0 1 -11.42531,11.42857 11.428572,11.428572 0 0 1 -11.43176,-11.42219 11.428572,11.428572 0 0 1 11.41899,-11.43495 11.428572,11.428572 0 0 1 11.43808,11.4158" />
  <path style="fill:#c9c4bf" d="m 1571.4285,940.00003 a 11.428572,11.428572 0 0 1 -11.4254,11.42857 11.428572,11.428572 0 0 1 -11.4318,-11.42219 11.428572,11.428572 0 0 1 11.419,-11.43495 11.428572,11.428572 0 0 1 11.4382,11.4158" />
  <path style="fill:#9a938c" d="m 33.04896,31.401125 a 6.9936037,7.8021979 0 0 1 -6.99165,7.802197 6.9936037,7.8021979 0 0 1 -6.99555,-7.79784 6.9936037,7.8021979 0 0 1 6.98774,-7.806553 6.9936037,7.8021979 0 0 1 6.99946,7.793481" />
  <path style="fill:#9a938c" d="m 400.21321,45.054928 a 6.9936037,7.8021979 0 0 1 -6.99165,7.802203 6.9936037,7.8021979 0 0 1 -6.99556,-7.797845 6.9936037,7.8021979 0 0 1 6.98775,-7.806553 6.9936037,7.8021979 0 0 1 6.99945,7.79348" />
  <path style="fill:#9a938c" d="m 365.2451,308.37918 a 6.9936037,7.8021979 0 0 1 -6.99165,7.8022 6.9936037,7.8021979 0 0 1 -6.99556,-7.79784 6.9936037,7.8021979 0 0 1 6.98775,-7.80656 6.9936037,7.8021979 0 0 1 6.99945,7.79348" />
  <path style="fill:#9a938c" d="m 55.77821,150.38461 a 6.9936037,7.8021979 0 0 1 -6.99165,7.8022 6.9936037,7.8021979 0 0 1 -6.99556,-7.79784 6.9936037,7.8021979 0 0 1 6.98775,-7.80655 6.9936037,7.8021979 0 0 1 6.99946,7.79348" />
  <path style="fill:#9a938c" d="m 697.44131,105.52197 a 6.9936037,7.8021979 0 0 1 -6.99165,7.8022 6.9936037,7.8021979 0 0 1 -6.99555,-7.79784 6.9936037,7.8021979 0 0 1 6.98774,-7.806549 6.9936037,7.8021979 0 0 1 6.99946,7.793479" />
  <path style="fill:#9a938c" d="m 760.38371,394.20331 a 6.9936037,7.8021979 0 0 1 -6.99165,7.80219 6.9936037,7.8021979 0 0 1 -6.99556,-7.79784 6.9936037,7.8021979 0 0 1 6.98775,-7.80655 6.9936037,7.8021979 0 0 1 6.99946,7.79348" />
  <path style="fill:#9a938c" d="m 302.30269,195.24721 a 6.9936037,7.8021979 0 0 1 -6.99166,7.80219 6.9936037,7.8021979 0 0 1 -6.99555,-7.79784 6.9936037,7.8021979 0 0 1 6.98774,-7.80655 6.9936037,7.8021979 0 0 1 6.99946,7.79348" />
  <path style="fill:#9a938c" d="m 108.23021,478.07687 a 6.9936037,7.8021979 0 0 1 -6.99165,7.8022 6.9936037,7.8021979 0 0 1 -6.99556,-7.79784 6.9936037,7.8021979 0 0 1 6.98774,-7.80655 6.9936037,7.8021979 0 0 1 6.99946,7.79348" />
  <path style="fill:#9a938c" d="m 891.51371,206.95053 a 6.9936037,7.8021979 0 0 1 -6.99165,7.8022 6.9936037,7.8021979 0 0 1 -6.99555,-7.79784 6.9936037,7.8021979 0 0 1 6.98774,-7.80656 6.9936037,7.8021979 0 0 1 6.99946,7.79348" />
  <path style="fill:#9a938c" d="m 945.71415,19.697807 a 6.9936037,7.8021979 0 0 1 -6.99165,7.802198 6.9936037,7.8021979 0 0 1 -6.99555,-7.79784 6.9936037,7.8021979 0 0 1 6.98774,-7.806553 6.9936037,7.8021979 0 0 1 6.99946,7.79348" />
  <path style="fill:#9a938c" d="m 624.00846,206.95053 a 6.9936037,7.8021979 0 0 1 -6.99165,7.8022 6.9936037,7.8021979 0 0 1 -6.99556,-7.79784 6.9936037,7.8021979 0 0 1 6.98775,-7.80656 6.9936037,7.8021979 0 0 1 6.99946,7.79348" />
  <path style="fill:#9a938c" d="m 943.96577,552.19778 a 6.9936037,7.8021979 0 0 1 -6.99165,7.8022 6.9936037,7.8021979 0 0 1 -6.99555,-7.79784 6.9936037,7.8021979 0 0 1 6.98774,-7.80655 6.9936037,7.8021979 0 0 1 6.99946,7.79348" />
  <path style="fill:#716a63" d="m 121.91894,427.21158 a 5.2452025,2.9258239 0 0 1 -5.24374,2.92582 5.2452025,2.9258239 0 0 1 -5.24667,-2.92419 5.2452025,2.9258239 0 0 1 5.24081,-2.92746 5.2452025,2.9258239 0 0 1 5.2496,2.92256" />
  <path style="fill:#716a63" d="m 135.90611,504.25827 a 6.9936037,7.8021979 0 0 1 -6.99165,7.8022 6.9936037,7.8021979 0 0 1 -6.99556,-7.79784 6.9936037,7.8021979 0 0 1 6.98775,-7.80656 6.9936037,7.8021979 0 0 1 6.99946,7.79348" />
  <path style="fill:#716a63" d="m 503.07037,517.91208 a 6.9936037,7.8021979 0 0 1 -6.99165,7.8022 6.9936037,7.8021979 0 0 1 -6.99556,-7.79784 6.9936037,7.8021979 0 0 1 6.98775,-7.80656 6.9936037,7.8021979 0 0 1 6.99946,7.79348" />
  <path style="fill:#716a63" d="m 468.10223,781.23636 a 6.9936037,7.8021979 0 0 1 -6.99165,7.80219 6.9936037,7.8021979 0 0 1 -6.99556,-7.79784 6.9936037,7.8021979 0 0 1 6.98775,-7.80655 6.9936037,7.8021979 0 0 1 6.99946,7.79348" />
  <path style="fill:#716a63" d="m 158.63536,623.24173 a 6.9936037,7.8021979 0 0 1 -6.99165,7.8022 6.9936037,7.8021979 0 0 1 -6.99556,-7.79784 6.9936037,7.8021979 0 0 1 6.98775,-7.80656 6.9936037,7.8021979 0 0 1 6.99945,7.79348" />
  <path style="fill:#716a63" d="m 800.29846,578.37912 a 6.9936037,7.8021979 0 0 1 -6.99165,7.8022 6.9936037,7.8021979 0 0 1 -6.99556,-7.79784 6.9936037,7.8021979 0 0 1 6.98775,-7.80656 6.9936037,7.8021979 0 0 1 6.99945,7.79348" />
  <path style="fill:#716a63" d="m 863.24084,867.06045 a 6.9936037,7.8021979 0 0 1 -6.99165,7.8022 6.9936037,7.8021979 0 0 1 -6.99555,-7.79784 6.9936037,7.8021979 0 0 1 6.98774,-7.80655 6.9936037,7.8021979 0 0 1 6.99946,7.79348" />
  <path style="fill:#716a63" d="m 405.15985,668.10434 a 6.9936037,7.8021979 0 0 1 -6.99165,7.8022 6.9936037,7.8021979 0 0 1 -6.99556,-7.79784 6.9936037,7.8021979 0 0 1 6.98775,-7.80656 6.9936037,7.8021979 0 0 1 6.99945,7.79348" />
  <path style="fill:#716a63" d="m 211.08735,950.93399 a 6.9936037,7.8021979 0 0 1 -6.99165,7.80217 6.9936037,7.8021979 0 0 1 -6.99555,-7.79781 6.9936037,7.8021979 0 0 1 6.98774,-7.80656 6.9936037,7.8021979 0 0 1 6.99946,7.79348" />
  <path style="fill:#716a63" d="m 994.37083,679.80765 a 6.9936037,7.8021979 0 0 1 -6.99165,7.80219 6.9936037,7.8021979 0 0 1 -6.99555,-7.79784 6.9936037,7.8021979 0 0 1 6.98774,-7.80655 6.9936037,7.8021979 0 0 1 6.99946,7.79348" />
  <path style="fill:#716a63" d="m 1048.5712,492.55496 a 6.9936037,7.8021979 0 0 1 -6.9916,7.8022 6.9936037,7.8021979 0 0 1 -6.9956,-7.79784 6.9936037,7.8021979 0 0 1 6.9878,-7.80655 6.9936037,7.8021979 0 0 1 6.9994,7.79348" />
  <path style="fill:#716a63" d="m 726.86559,679.80765 a 6.9936037,7.8021979 0 0 1 -6.99165,7.80219 6.9936037,7.8021979 0 0 1 -6.99556,-7.79784 6.9936037,7.8021979 0 0 1 6.98775,-7.80655 6.9936037,7.8021979 0 0 1 6.99946,7.79348" />
  <path style="fill:#716a63" d="m 1046.8228,1025.0549 a 6.9936037,7.8021979 0 0 1 -6.9916,7.8022 6.9936037,7.8021979 0 0 1 -6.9956,-7.7978 6.9936037,7.8021979 0 0 1 6.9878,-7.8066 6.9936037,7.8021979 0 0 1 6.9994,7.7935" />
  <path style="fill:#46413d" d="m 1068.9232,80.920371 a 4.4616203,2.3489008 0 0 1 -4.4603,2.3489 4.4616203,2.3489008 0 0 1 -4.4629,-2.34759 4.4616203,2.3489008 0 0 1 4.4579,-2.35021 4.4616203,2.3489008 0 0 1 4.4653,2.34627" />
  <path style="fill:#46413d" d="m 1080.8208,142.77475 a 5.9488273,6.2637362 0 0 1 -5.9471,6.26373 5.9488273,6.2637362 0 0 1 -5.9505,-6.26023 5.9488273,6.2637362 0 0 1 5.9438,-6.26724 5.9488273,6.2637362 0 0 1 5.9538,6.25674" />
  <path style="fill:#46413d" d="m 1393.1343,153.73626 a 5.9488273,6.2637362 0 0 1 -5.9472,6.26373 5.9488273,6.2637362 0 0 1 -5.9505,-6.26023 5.9488273,6.2637362 0 0 1 5.9439,-6.26724 5.9488273,6.2637362 0 0 1 5.9538,6.25674" />
  <path style="fill:#46413d" d="m 1363.3901,365.13742 a 5.9488273,6.2637362 0 0 1 -5.9472,6.26374 5.9488273,6.2637362 0 0 1 -5.9505,-6.26024 5.9488273,6.2637362 0 0 1 5.9439,-6.26723 5.9488273,6.2637362 0 0 1 5.9538,6.25673" />
  <path style="fill:#46413d" d="m 1100.1545,238.29669 a 5.9488273,6.2637362 0 0 1 -5.9471,6.26374 5.9488273,6.2637362 0 0 1 -5.9505,-6.26024 5.9488273,6.2637362 0 0 1 5.9438,-6.26723 5.9488273,6.2637362 0 0 1 5.9538,6.25673" />
  <path style="fill:#46413d" d="m 1645.9593,202.28023 a 5.9488273,6.2637362 0 0 1 -5.9471,6.26373 5.9488273,6.2637362 0 0 1 -5.9505,-6.26024 5.9488273,6.2637362 0 0 1 5.9438,-6.26723 5.9488273,6.2637362 0 0 1 5.9538,6.25674" />
  <path style="fill:#46413d" d="m 1699.4989,434.03845 a 5.9488273,6.2637362 0 0 1 -5.9472,6.26374 5.9488273,6.2637362 0 0 1 -5.9505,-6.26024 5.9488273,6.2637362 0 0 1 5.9439,-6.26723 5.9488273,6.2637362 0 0 1 5.9538,6.25673" />
  <path style="fill:#46413d" d="m 1309.8506,274.31314 a 5.9488273,6.2637362 0 0 1 -5.9471,6.26374 5.9488273,6.2637362 0 0 1 -5.9505,-6.26024 5.9488273,6.2637362 0 0 1 5.9438,-6.26723 5.9488273,6.2637362 0 0 1 5.9538,6.25673" />
  <path style="fill:#46413d" d="m 1144.7708,501.37356 a 5.9488273,6.2637362 0 0 1 -5.9472,6.26374 5.9488273,6.2637362 0 0 1 -5.9505,-6.26024 5.9488273,6.2637362 0 0 1 5.9438,-6.26723 5.9488273,6.2637362 0 0 1 5.9538,6.25674" />
  <path style="fill:#46413d" d="m 1811.0393,283.70875 a 5.9488273,6.2637362 0 0 1 -5.9472,6.26374 5.9488273,6.2637362 0 0 1 -5.9505,-6.26024 5.9488273,6.2637362 0 0 1 5.9439,-6.26723 5.9488273,6.2637362 0 0 1 5.9538,6.25674" />
  <path style="fill:#46413d" d="m 1857.1427,133.37914 a 5.9488273,6.2637362 0 0 1 -5.9472,6.26374 5.9488273,6.2637362 0 0 1 -5.9505,-6.26024 5.9488273,6.2637362 0 0 1 5.9439,-6.26723 5.9488273,6.2637362 0 0 1 5.9538,6.25673" />
  <path style="fill:#46413d" d="m 1583.4967,283.70875 a 5.9488273,6.2637362 0 0 1 -5.9472,6.26374 5.9488273,6.2637362 0 0 1 -5.9504,-6.26024 5.9488273,6.2637362 0 0 1 5.9438,-6.26723 5.9488273,6.2637362 0 0 1 5.9538,6.25674" />
  <path style="fill:#46413d" d="m 1855.6555,560.87906 a 5.9488273,6.2637362 0 0 1 -5.9472,6.26373 5.9488273,6.2637362 0 0 1 -5.9505,-6.26023 5.9488273,6.2637362 0 0 1 5.9439,-6.26724 5.9488273,6.2637362 0 0 1 5.9538,6.25674" />
  <path style="fill:#46413d" d="m 64.63752,18.063255 a 4.4616203,2.3489008 0 0 1 -4.46037,2.348901 4.4616203,2.3489008 0 0 1 -4.46287,-2.347589 4.4616203,2.3489008 0 0 1 4.45789,-2.350212 4.4616203,2.3489008 0 0 1 4.46535,2.346276" />
  <path style="fill:#46413d" d="m 76.53513,79.917621 a 5.9488273,6.2637362 0 0 1 -5.94717,6.26374 5.9488273,6.2637362 0 0 1 -5.95048,-6.26024 5.9488273,6.2637362 0 0 1 5.94384,-6.26723 5.9488273,6.2637362 0 0 1 5.95381,6.25674" />
  <path style="fill:#46413d" d="m 388.84853,90.879111 a 5.9488273,6.2637362 0 0 1 -5.94716,6.26374 5.9488273,6.2637362 0 0 1 -5.95049,-6.26024 5.9488273,6.2637362 0 0 1 5.94384,-6.26723 5.9488273,6.2637362 0 0 1 5.95381,6.25673" />
  <path style="fill:#46413d" d="m 359.10433,302.28029 a 5.9488273,6.2637362 0 0 1 -5.94717,6.26373 5.9488273,6.2637362 0 0 1 -5.95048,-6.26023 5.9488273,6.2637362 0 0 1 5.94384,-6.26724 5.9488273,6.2637362 0 0 1 5.95381,6.25674" />
  <path style="fill:#46413d" d="m 95.86887,175.43954 a 5.9488273,6.2637362 0 0 1 -5.94716,6.26374 5.9488273,6.2637362 0 0 1 -5.95049,-6.26024 5.9488273,6.2637362 0 0 1 5.94384,-6.26723 5.9488273,6.2637362 0 0 1 5.95381,6.25674" />
  <path style="fill:#46413d" d="m 641.6736,139.42312 a 5.9488273,6.2637362 0 0 1 -5.94716,6.26373 5.9488273,6.2637362 0 0 1 -5.95049,-6.26023 5.9488273,6.2637362 0 0 1 5.94384,-6.26724 5.9488273,6.2637362 0 0 1 5.95381,6.25674" />
  <path style="fill:#46413d" d="m 695.21316,371.1813 a 5.9488273,6.2637362 0 0 1 -5.94717,6.26374 5.9488273,6.2637362 0 0 1 -5.95049,-6.26024 5.9488273,6.2637362 0 0 1 5.94385,-6.26723 5.9488273,6.2637362 0 0 1 5.9538,6.25674" />
  <path style="fill:#46413d" d="m 305.56495,211.45601 a 5.9488273,6.2637362 0 0 1 -5.94717,6.26373 5.9488273,6.2637362 0 0 1 -5.95049,-6.26023 5.9488273,6.2637362 0 0 1 5.94385,-6.26724 5.9488273,6.2637362 0 0 1 5.9538,6.25674" />
  <path style="fill:#46413d" d="m 140.48505,438.51645 a 5.9488273,6.2637362 0 0 1 -5.94716,6.26373 5.9488273,6.2637362 0 0 1 -5.95049,-6.26023 5.9488273,6.2637362 0 0 1 5.94384,-6.26724 5.9488273,6.2637362 0 0 1 5.95381,6.25674" />
  <path style="fill:#46413d" d="m 806.75356,220.85164 a 5.9488273,6.2637362 0 0 1 -5.94717,6.26373 5.9488273,6.2637362 0 0 1 -5.95048,-6.26023 5.9488273,6.2637362 0 0 1 5.94384,-6.26724 5.9488273,6.2637362 0 0 1 5.95381,6.25674" />
  <path style="fill:#46413d" d="m 852.85695,70.522021 a 5.9488273,6.2637362 0 0 1 -5.94716,6.26374 5.9488273,6.2637362 0 0 1 -5.95049,-6.26024 5.9488273,6.2637362 0 0 1 5.94384,-6.26723 5.9488273,6.2637362 0 0 1 5.95381,6.25674" />
  <path style="fill:#46413d" d="m 579.21096,220.85164 a 5.9488273,6.2637362 0 0 1 -5.94717,6.26373 5.9488273,6.2637362 0 0 1 -5.95049,-6.26023 5.9488273,6.2637362 0 0 1 5.94384,-6.26724 5.9488273,6.2637362 0 0 1 5.95381,6.25674" />
  <path style="fill:#46413d" d="m 851.36977,498.02194 a 5.9488273,6.2637362 0 0 1 -5.94716,6.26374 5.9488273,6.2637362 0 0 1 -5.95049,-6.26024 5.9488273,6.2637362 0 0 1 5.94384,-6.26723 5.9488273,6.2637362 0 0 1 5.95381,6.25673" />
  <path style="fill:#4e4844" d="m 518.92327,460.92038 a 4.4616203,2.3489008 0 0 1 -4.46038,2.3489 4.4616203,2.3489008 0 0 1 -4.46286,-2.34759 4.4616203,2.3489008 0 0 1 4.45788,-2.35021 4.4616203,2.3489008 0 0 1 4.46536,2.34627" />
  <path style="fill:#4e4844" d="m 530.82088,522.77475 a 5.9488273,6.2637362 0 0 1 -5.94717,6.26373 5.9488273,6.2637362 0 0 1 -5.95049,-6.26023 5.9488273,6.2637362 0 0 1 5.94385,-6.26724 5.9488273,6.2637362 0 0 1 5.9538,6.25674" />
  <path style="fill:#4e4844" d="m 843.13428,533.73624 a 5.9488273,6.2637362 0 0 1 -5.94716,6.26373 5.9488273,6.2637362 0 0 1 -5.95049,-6.26024 5.9488273,6.2637362 0 0 1 5.94384,-6.26723 5.9488273,6.2637362 0 0 1 5.95381,6.25674" />
  <path style="fill:#4e4844" d="m 813.39008,745.13742 a 5.9488273,6.2637362 0 0 1 -5.94717,6.26374 5.9488273,6.2637362 0 0 1 -5.95048,-6.26024 5.9488273,6.2637362 0 0 1 5.94384,-6.26723 5.9488273,6.2637362 0 0 1 5.95381,6.25673" />
  <path style="fill:#4e4844" d="m 550.15462,618.29666 a 5.9488273,6.2637362 0 0 1 -5.94717,6.26374 5.9488273,6.2637362 0 0 1 -5.95049,-6.26024 5.9488273,6.2637362 0 0 1 5.94385,-6.26723 5.9488273,6.2637362 0 0 1 5.9538,6.25673" />
  <path style="fill:#4e4844" d="m 1095.9593,582.28024 a 5.9488273,6.2637362 0 0 1 -5.9472,6.26374 5.9488273,6.2637362 0 0 1 -5.9505,-6.26024 5.9488273,6.2637362 0 0 1 5.9438,-6.26723 5.9488273,6.2637362 0 0 1 5.9539,6.25673" />
  <path style="fill:#4e4844" d="m 1149.4988,814.03842 a 5.9488273,6.2637362 0 0 1 -5.9471,6.26374 5.9488273,6.2637362 0 0 1 -5.9505,-6.26024 5.9488273,6.2637362 0 0 1 5.9438,-6.26723 5.9488273,6.2637362 0 0 1 5.9538,6.25673" />
  <path style="fill:#4e4844" d="m 759.85065,654.31314 a 5.9488273,6.2637362 0 0 1 -5.94716,6.26374 5.9488273,6.2637362 0 0 1 -5.95049,-6.26024 5.9488273,6.2637362 0 0 1 5.94384,-6.26723 5.9488273,6.2637362 0 0 1 5.95381,6.25673" />
  <path style="fill:#4e4844" d="m 594.77076,881.37356 a 5.9488273,6.2637362 0 0 1 -5.94716,6.26374 5.9488273,6.2637362 0 0 1 -5.95049,-6.26024 5.9488273,6.2637362 0 0 1 5.94384,-6.26723 5.9488273,6.2637362 0 0 1 5.95381,6.25674" />
  <path style="fill:#4e4844" d="m 1261.0392,663.70877 a 5.9488273,6.2637362 0 0 1 -5.9471,6.26374 5.9488273,6.2637362 0 0 1 -5.9505,-6.26024 5.9488273,6.2637362 0 0 1 5.9438,-6.26723 5.9488273,6.2637362 0 0 1 5.9538,6.25673" />
  <path style="fill:#4e4844" d="m 1307.1426,513.37918 a 5.9488273,6.2637362 0 0 1 -5.9471,6.26374 5.9488273,6.2637362 0 0 1 -5.9505,-6.26024 5.9488273,6.2637362 0 0 1 5.9438,-6.26723 5.9488273,6.2637362 0 0 1 5.9538,6.25673" />
  <path style="fill:#4e4844" d="m 1033.4966,663.70877 a 5.9488273,6.2637362 0 0 1 -5.9472,6.26374 5.9488273,6.2637362 0 0 1 -5.9504,-6.26024 5.9488273,6.2637362 0 0 1 5.9438,-6.26723 5.9488273,6.2637362 0 0 1 5.9538,6.25673" />
  <path style="fill:#4e4844" d="m 1305.6555,940.87906 a 5.9488273,6.2637362 0 0 1 -5.9472,6.26373 5.9488273,6.2637362 0 0 1 -5.9505,-6.26023 5.9488273,6.2637362 0 0 1 5.9438,-6.26724 5.9488273,6.2637362 0 0 1 5.9539,6.25674" />
</svg>
